<svg width="123" height="16" viewBox="0 0 123 16" fill="none" xmlns="http://www.w3.org/2000/svg">
<g clip-path="url(#clip0_2968_378)">
<path d="M8.51812 10.3476V14.7777H6.96843V10.3476H0.929688V9.05059H14.5569V10.3476H8.51812ZM2.49622 7.66934V1.44531H3.99538V3.28978H5.78932V1.44531H7.28848V7.66934H2.49622ZM5.78932 4.58681H3.99538V6.3639H5.78932V4.58681ZM8.18965 7.66934V1.44531H9.68881V3.28978H11.4827V1.44531H12.9819V7.66934H8.18123H8.18965ZM11.4912 4.58681H9.69723V6.3639H11.4912V4.58681Z" fill="#B7B7B7"/>
<path d="M22.8358 11.8981C21.9346 11.9739 21.0587 12.0245 20.2081 12.0413L16.2917 12.075V6.55002H21.4125V3.7791H16.2917V2.46524H22.9453V7.85547H17.833V10.7696L20.6797 10.7527C21.3619 10.7359 22.1199 10.6853 22.9537 10.6095C23.7875 10.5337 24.4276 10.4664 24.874 10.3906V11.6792C24.4108 11.755 23.7286 11.8223 22.8274 11.9066L22.8358 11.8981ZM25.7583 14.7701V1.15137H27.308V14.7785H25.7583V14.7701Z" fill="#B7B7B7"/>
<path d="M35.6799 6.13733C34.5597 7.3754 32.8668 8.2092 30.5928 8.63031L29.7422 7.59438C31.4687 7.31644 32.8163 6.73531 33.8017 5.8594C34.7787 4.98348 35.3514 4.14968 35.503 3.34957H30.5928V2.06097H37.5159C37.4148 3.53486 36.8 4.89084 35.6799 6.12891V6.13733ZM31.5867 14.6185V13.3215H33.7512L33.5322 10.5H31.7383V9.21145H42.0471V10.5H40.2531L40.051 13.3215H42.2155V14.6185H31.5782H31.5867ZM35.0819 10.5L35.284 13.3215H38.5013L38.7034 10.5H35.0819ZM40.2363 8.39449V1.15137H41.786V8.39449H40.2363Z" fill="#B7B7B7"/>
<path d="M43.1924 9.40503V8.09116H56.8196V9.40503H43.1924ZM53.8549 6.12036C52.9706 6.6678 51.682 6.93731 49.9891 6.93731C48.2963 6.93731 47.0498 6.6678 46.1486 6.12036C45.2474 5.57291 44.801 4.87387 44.801 4.03164C44.801 3.18942 45.2474 2.49037 46.1402 1.91766C47.0329 1.34495 48.3131 1.05859 49.9891 1.05859C51.6652 1.05859 52.9706 1.34495 53.8549 1.90924C54.7393 2.47353 55.1772 3.181 55.1772 4.03164C55.1772 4.88229 54.7393 5.57291 53.8549 6.12036ZM44.9442 14.4668V10.5926H46.4939V13.1613H55.472V14.4584H44.9442V14.4668ZM52.5916 2.76831C51.9431 2.43142 51.0756 2.26297 50.006 2.26297C48.9363 2.26297 48.0857 2.43142 47.4372 2.75989C46.7887 3.08835 46.4602 3.50946 46.4602 4.0148C46.4602 4.52013 46.7971 4.9244 47.4625 5.23602C48.1278 5.54765 48.97 5.69925 49.9975 5.69925C51.0251 5.69925 51.8926 5.54765 52.5663 5.25287C53.2401 4.95809 53.5686 4.55382 53.5686 4.04849C53.5686 3.54315 53.2401 3.1052 52.5916 2.76831Z" fill="#B7B7B7"/>
<path d="M64.3743 11.3928C63.4731 11.5107 62.572 11.5781 61.6624 11.6034L58.3945 11.637V2.44839H59.9442V10.2811L61.7129 10.2642C62.4372 10.2474 63.2626 10.18 64.1975 10.0789C65.1323 9.97787 65.8735 9.86838 66.4378 9.75047V11.0643C65.9661 11.157 65.2755 11.2665 64.3827 11.3844L64.3743 11.3928ZM69.0487 1.15137V6.49106H71.0953V7.83862H69.0487V14.7701H67.499V1.15137H69.0487Z" fill="#B7B7B7"/>
<path d="M78.9702 10.0032V14.7702H77.3783V10.0032H71.3733V8.70616H85.0005V10.0032H78.9786H78.9702ZM73.2093 7.11435V1.75781H83.1644V7.11435H73.2093ZM81.6063 3.05484H74.7675V5.80891H81.6063V3.05484Z" fill="#B7B7B7"/>
<path d="M85.4636 7.91433V6.70995H99.0908V7.91433H85.4636ZM87.2239 5.67402V1.59766H97.3137V2.83572H88.7988V4.42753H97.4653V5.6656H87.2154L87.2239 5.67402ZM87.2239 14.6184V11.2243H95.6293V10.1546H87.2239V8.97553H97.3137V12.3528H88.8915V13.4225H97.6506V14.6184H87.2154H87.2239Z" fill="#B7B7B7"/>
<path d="M102.519 15.4684C101.971 14.643 101.382 13.6155 100.75 12.3774C100.118 11.1478 99.8066 9.67389 99.8066 7.9726C99.8066 6.2713 100.118 4.78899 100.75 3.55092C101.382 2.32128 101.971 1.28534 102.519 0.459961H103.63C102.813 1.84963 102.232 3.1635 101.887 4.38472C101.542 5.60595 101.365 6.8019 101.365 7.9726C101.365 9.14329 101.533 10.314 101.887 11.5436C102.232 12.7648 102.813 14.0787 103.63 15.4684H102.519Z" fill="#B7B7B7"/>
<path d="M111.901 10.0361V14.7694H110.351V10.0361H104.312V8.74753H117.94V10.0361H111.901ZM113.223 4.73012C113.973 5.48812 115.261 6.0861 117.097 6.51564L116.062 7.61895C115.118 7.39997 114.167 7.01255 113.206 6.43984C112.238 5.87555 111.547 5.26915 111.126 4.62906C110.713 5.23546 110.082 5.82501 109.223 6.38088C108.364 6.93675 107.353 7.34944 106.191 7.61895L105.155 6.51564C106.974 6.11979 108.263 5.53866 109.021 4.75539C109.779 3.97212 110.208 3.38257 110.309 2.96988H105.93V1.67285H116.331V2.96988H111.951C112.053 3.38257 112.482 3.97212 113.232 4.73012H113.223Z" fill="#B7B7B7"/>
<path d="M120.273 11.5436C120.618 10.3224 120.795 9.13486 120.795 7.9726C120.795 6.81033 120.618 5.61437 120.273 4.38472C119.927 3.1635 119.338 1.84963 118.512 0.459961H119.641C120.188 1.28534 120.778 2.31285 121.41 3.55092C122.041 4.78057 122.353 6.25446 122.353 7.9726C122.353 9.69073 122.041 11.1478 121.41 12.3774C120.778 13.6071 120.188 14.643 119.641 15.4684H118.512C119.338 14.0787 119.927 12.7648 120.273 11.5436Z" fill="#B7B7B7"/>
</g>
<defs>
<clipPath id="clip0_2968_378">
<rect width="121.423" height="15" fill="white" transform="translate(0.929688 0.46875)"/>
</clipPath>
</defs>
</svg>
