<svg width="88" height="16" viewBox="0 0 88 16" fill="none" xmlns="http://www.w3.org/2000/svg">
<g clip-path="url(#clip0_2968_391)">
<path d="M10.963 10.3491V2.7991C10.963 2.5491 10.933 2.3391 10.883 2.1891C10.833 2.0391 10.733 1.8791 10.603 1.7291C10.513 1.6191 10.493 1.5291 10.543 1.4491C10.583 1.3691 10.663 1.3291 10.763 1.3291H13.243V10.3691H10.963V10.3491ZM5.14303 14.8091C4.70303 14.8091 4.33303 14.7891 4.02303 14.7391C3.71303 14.6891 3.46303 14.5991 3.27303 14.4691C3.08303 14.3391 2.94303 14.1591 2.86303 13.9291C2.77303 13.6991 2.73303 13.3991 2.73303 13.0391V10.7891C2.73303 10.6391 2.70303 10.5091 2.66303 10.3991C2.61303 10.2791 2.54303 10.1591 2.43303 10.0391C2.34303 9.9291 2.32303 9.8391 2.36303 9.7491C2.40303 9.6591 2.47303 9.6191 2.58303 9.6191H5.05303V12.5791C5.05303 12.8391 5.10303 13.0091 5.20303 13.0691C5.30303 13.1391 5.47303 13.1691 5.72303 13.1691H13.493V14.8091H5.14303ZM3.92303 3.0191C3.92303 2.7791 3.90303 2.5791 3.87303 2.4291C3.84303 2.2791 3.75303 2.1291 3.62303 1.9691C3.53303 1.8591 3.51303 1.7691 3.55303 1.6791C3.59303 1.5891 3.66303 1.5491 3.77303 1.5491H6.28303V3.4791C6.28303 3.9491 6.39303 4.3791 6.60303 4.7691C6.81303 5.1491 7.09303 5.4891 7.42303 5.7791C7.75303 6.0691 8.13303 6.3191 8.55303 6.5391C8.97303 6.7491 9.39303 6.9291 9.82303 7.0791L9.19303 8.2591C9.09303 8.4291 8.87303 8.4791 8.51303 8.4091C8.16303 8.3291 7.67303 8.0991 7.04303 7.7091C6.68303 7.4891 6.34303 7.2391 6.02303 6.9591C5.70303 6.6791 5.42303 6.3891 5.20303 6.0791C4.67303 6.8391 4.01303 7.4691 3.23303 7.9991C3.01303 8.1491 2.78303 8.2791 2.54303 8.4091C2.30303 8.5391 2.08303 8.6491 1.87303 8.7291C1.66303 8.8091 1.48303 8.8591 1.32303 8.8791C1.17303 8.8891 1.07303 8.8591 1.02303 8.7691L0.353027 7.5091C0.833027 7.3291 1.29303 7.1091 1.72303 6.8491C2.15303 6.5891 2.53303 6.3091 2.86303 5.9891C3.19303 5.6691 3.45303 5.3191 3.64303 4.9291C3.83303 4.5391 3.92303 4.1191 3.92303 3.6491V3.0391V3.0191Z" fill="#B7B7B7"/>
<path d="M25.0929 10.5589V2.79895C25.0929 2.54895 25.0729 2.34895 25.0229 2.19895C24.9729 2.04895 24.8829 1.88895 24.7429 1.72895C24.6429 1.61895 24.6229 1.52895 24.6629 1.44895C24.7029 1.36895 24.7829 1.32895 24.8929 1.32895H27.3729V4.75895H29.0329V6.39894H27.3729V10.5689H25.0929V10.5589ZM19.3529 7.63895C19.8529 7.63895 20.2429 7.46895 20.5229 7.13895C20.8029 6.80895 20.9329 6.40895 20.9329 5.93895C20.9329 5.44895 20.7929 5.02895 20.5229 4.69895C20.2429 4.36895 19.8529 4.19895 19.3529 4.19895C18.8529 4.19895 18.4429 4.36895 18.1729 4.69895C17.9029 5.02895 17.7629 5.44895 17.7629 5.93895C17.7629 6.39895 17.9029 6.79894 18.1729 7.13895C18.4429 7.46895 18.8329 7.63895 19.3529 7.63895ZM27.5529 13.1689V14.8089H19.4329C18.9929 14.8089 18.6229 14.7789 18.3029 14.7289C17.9929 14.6789 17.7329 14.5789 17.5229 14.4389C17.3229 14.2989 17.1729 14.1089 17.0829 13.8689C16.9929 13.6289 16.9429 13.3289 16.9429 12.9589V11.3589C16.9429 11.2089 16.9129 11.0789 16.8729 10.9689C16.8229 10.8489 16.7429 10.7289 16.6429 10.6089C16.5529 10.4989 16.5329 10.4089 16.5729 10.3189C16.6129 10.2289 16.6829 10.1889 16.7929 10.1889H19.2629V12.5689C19.2629 12.8289 19.3129 12.9989 19.4129 13.0589C19.5129 13.1289 19.6829 13.1589 19.9329 13.1589H27.5629L27.5529 13.1689ZM18.2929 2.38895C18.2929 2.13895 18.2729 1.93895 18.2429 1.78895C18.2129 1.63895 18.1229 1.47895 17.9929 1.31895C17.8929 1.20895 17.8729 1.11895 17.9129 1.03895C17.9529 0.958945 18.0329 0.918945 18.1429 0.918945H20.6229V2.54895H23.9229V4.14895H22.3929C22.6129 4.39895 22.7929 4.68895 22.9229 4.99895C23.0529 5.30895 23.1229 5.65895 23.1229 6.01895C23.1229 6.47895 23.0429 6.89895 22.8729 7.28895C22.7029 7.67895 22.4629 8.01895 22.1429 8.30895C21.8229 8.59895 21.4329 8.82895 20.9629 8.98895C20.4929 9.14894 19.9529 9.23895 19.3529 9.23895C18.7529 9.23895 18.2229 9.15895 17.7529 8.98895C17.2829 8.82895 16.8929 8.59895 16.5729 8.30895C16.2529 8.01895 16.0129 7.67895 15.8429 7.28895C15.6729 6.89895 15.5929 6.46895 15.5929 6.01895C15.5929 5.63895 15.6529 5.29894 15.7729 4.98895C15.8929 4.67895 16.0629 4.39895 16.2829 4.14895H14.7629V2.54895H18.2929V2.40895V2.38895Z" fill="#B7B7B7"/>
<path d="M39.393 14.9893V2.80934C39.393 2.55934 39.373 2.35934 39.323 2.20934C39.273 2.05934 39.183 1.89934 39.043 1.73934C38.953 1.62934 38.933 1.53934 38.973 1.44934C39.013 1.35934 39.083 1.31934 39.193 1.31934H41.673V5.90934H43.563V7.57934H41.673V14.9893H39.393ZM29.933 3.50934V1.86934H37.983V3.50934H35.183V5.91934C35.183 6.70934 35.323 7.41934 35.593 8.03934C35.873 8.65934 36.273 9.22934 36.793 9.74934C37.073 10.0093 37.373 10.2593 37.703 10.5093C38.033 10.7493 38.363 10.9693 38.703 11.1593L37.863 12.4493C37.813 12.5293 37.723 12.5493 37.583 12.5293C37.443 12.5093 37.283 12.4393 37.083 12.3293C36.893 12.2193 36.673 12.0693 36.433 11.8793C36.193 11.6893 35.953 11.4793 35.713 11.2493C35.573 11.1093 35.413 10.9593 35.263 10.7793C35.103 10.5993 34.953 10.4093 34.803 10.2193C34.653 10.0293 34.513 9.82934 34.393 9.61934C34.273 9.41934 34.173 9.21934 34.113 9.03934C34.023 9.24934 33.913 9.47934 33.783 9.70934C33.643 9.93934 33.493 10.1693 33.323 10.3993C33.153 10.6293 32.973 10.8493 32.783 11.0593C32.593 11.2693 32.403 11.4693 32.213 11.6393C31.683 12.1293 31.223 12.4993 30.843 12.7393C30.463 12.9793 30.223 13.0393 30.113 12.8993L29.093 11.6493C29.473 11.4093 29.813 11.1593 30.133 10.8993C30.453 10.6393 30.753 10.3693 31.053 10.0693C31.663 9.46934 32.103 8.83934 32.383 8.17934C32.663 7.51934 32.803 6.76934 32.803 5.92934V3.49934H29.923L29.933 3.50934Z" fill="#B7B7B7"/>
<path d="M53.9431 10.4091V2.7991C53.9431 2.5491 53.9231 2.3491 53.8731 2.1991C53.8231 2.0491 53.7331 1.8891 53.5931 1.7291C53.4931 1.6191 53.4731 1.5291 53.5131 1.4491C53.5531 1.3691 53.6331 1.3291 53.7331 1.3291H56.2131V4.9291H57.8731V6.5691H56.2131V10.4191H53.9331L53.9431 10.4091ZM48.2131 14.8091C47.7731 14.8091 47.4031 14.7891 47.0931 14.7391C46.7831 14.6891 46.5331 14.5991 46.3431 14.4691C46.1531 14.3391 46.0131 14.1591 45.9331 13.9291C45.8431 13.6991 45.8031 13.3991 45.8031 13.0391V10.7891C45.8031 10.6391 45.7831 10.5091 45.7331 10.3991C45.6831 10.2791 45.6031 10.1591 45.5031 10.0391C45.4131 9.9291 45.3931 9.8391 45.4331 9.7491C45.4731 9.6591 45.5431 9.6191 45.6531 9.6191H48.1231V12.5791C48.1231 12.8391 48.1731 13.0091 48.2731 13.0691C48.3731 13.1391 48.5431 13.1691 48.7931 13.1691H56.4231V14.8091H48.2331H48.2131ZM47.1331 3.0191C47.1331 2.7791 47.1131 2.5791 47.0831 2.4291C47.0431 2.2791 46.9631 2.1291 46.8331 1.9691C46.7431 1.8591 46.7231 1.7691 46.7631 1.6791C46.8031 1.5891 46.8731 1.5491 46.9831 1.5491H49.4931V3.4091C49.4931 3.8791 49.5931 4.3091 49.7831 4.6991C49.9731 5.0791 50.2331 5.4191 50.5531 5.7091C50.8731 5.9991 51.2331 6.2491 51.6431 6.4691C52.0531 6.6791 52.4631 6.8591 52.8931 7.0091L52.2731 8.1891C52.1931 8.3691 51.9631 8.4191 51.5731 8.3291C51.1831 8.2391 50.6731 7.9891 50.0531 7.5991C49.7431 7.4091 49.4431 7.1791 49.1631 6.9191C48.8731 6.6591 48.6231 6.3691 48.4031 6.0291C47.9231 6.7991 47.3031 7.4391 46.5431 7.9491C46.3231 8.0891 46.0931 8.2291 45.8531 8.3591C45.6131 8.4891 45.3931 8.5991 45.1731 8.6791C44.9631 8.7591 44.7731 8.8091 44.6231 8.8191C44.4731 8.8191 44.3731 8.7891 44.3231 8.6991L43.6531 7.4391C44.1331 7.2691 44.5731 7.0591 44.9931 6.8091C45.4131 6.5591 45.7831 6.2791 46.1031 5.9491C46.4231 5.6191 46.6731 5.2591 46.8631 4.8691C47.0431 4.4791 47.1431 4.0491 47.1431 3.5791V3.0391L47.1331 3.0191Z" fill="#B7B7B7"/>
<path d="M69.0731 10.3491V2.7991C69.0731 2.5491 69.0431 2.3391 68.9931 2.1891C68.9431 2.0391 68.8431 1.8791 68.7131 1.7291C68.6231 1.6191 68.6031 1.5291 68.6431 1.4491C68.6831 1.3691 68.7631 1.3291 68.8731 1.3291H71.3631V10.3691H69.0831L69.0731 10.3491ZM63.2631 14.8091C62.8231 14.8091 62.4531 14.7891 62.1431 14.7391C61.8331 14.6891 61.5831 14.5991 61.3931 14.4691C61.2031 14.3391 61.0631 14.1591 60.9831 13.9291C60.8931 13.6991 60.8531 13.3991 60.8531 13.0391V10.7891C60.8531 10.6391 60.8331 10.5091 60.7831 10.3991C60.7331 10.2791 60.6531 10.1591 60.5531 10.0391C60.4631 9.9291 60.4431 9.8391 60.4831 9.7491C60.5231 9.6591 60.5931 9.6191 60.7031 9.6191H63.1731V12.5791C63.1731 12.8391 63.2231 13.0091 63.3231 13.0691C63.4231 13.1391 63.5931 13.1691 63.8431 13.1691H71.6131V14.8091H63.2731H63.2631ZM62.0431 3.0191C62.0431 2.7791 62.0231 2.5791 61.9931 2.4291C61.9631 2.2791 61.8731 2.1291 61.7431 1.9691C61.6531 1.8591 61.6331 1.7691 61.6731 1.6791C61.7131 1.5891 61.7831 1.5491 61.8931 1.5491H64.4031V3.4791C64.4031 3.9491 64.5131 4.3791 64.7231 4.7691C64.9331 5.1491 65.2131 5.4891 65.5431 5.7791C65.8831 6.0691 66.2531 6.3191 66.6731 6.5391C67.0931 6.7491 67.5231 6.9291 67.9431 7.0791L67.3231 8.2591C67.2231 8.4291 67.0031 8.4791 66.6431 8.4091C66.2931 8.3291 65.8031 8.0991 65.1631 7.7091C64.8031 7.4891 64.4631 7.2391 64.1431 6.9591C63.8231 6.6791 63.5431 6.3891 63.3231 6.0791C62.7931 6.8391 62.1331 7.4691 61.3431 7.9991C61.1231 8.1491 60.8931 8.2791 60.6531 8.4091C60.4131 8.5391 60.1931 8.6491 59.9731 8.7291C59.7631 8.8091 59.5831 8.8591 59.4231 8.8791C59.2731 8.8891 59.1731 8.8591 59.1231 8.7691L58.4531 7.5091C58.9331 7.3291 59.3931 7.1091 59.8231 6.8491C60.2531 6.5891 60.6331 6.3091 60.9631 5.9891C61.2931 5.6691 61.5531 5.3191 61.7431 4.9291C61.9331 4.5391 62.0231 4.1191 62.0231 3.6491V3.0391L62.0431 3.0191Z" fill="#B7B7B7"/>
<path d="M83.1529 9.4391V2.7991C83.1529 2.5491 83.1329 2.3491 83.0829 2.1991C83.0329 2.0491 82.9429 1.8891 82.8029 1.7291C82.7029 1.6191 82.6829 1.5291 82.7229 1.4491C82.7629 1.3691 82.8429 1.3291 82.9429 1.3291H85.4329V4.4191H87.0929V6.0591H85.4329V9.4491H83.1529V9.4391ZM74.9229 11.9191V10.2791H85.0929C85.2129 10.2791 85.2929 10.2991 85.3529 10.3491C85.4029 10.3891 85.4329 10.4791 85.4329 10.5991V15.0291H83.1529V11.9191H74.9329H74.9229ZM75.8129 7.1091C75.8129 7.3191 75.8529 7.4691 75.9429 7.5491C76.0329 7.6291 76.1729 7.6691 76.3829 7.6691H82.2129V8.8191C82.0029 8.9791 81.7129 9.0791 81.3529 9.1291C80.9929 9.1791 80.5729 9.1991 80.0729 9.1991H75.4129C74.8229 9.1991 74.3629 9.0391 74.0329 8.7091C73.7029 8.3791 73.5429 7.9491 73.5429 7.4191V3.0991C73.5429 2.8491 73.5229 2.6491 73.4729 2.4891C73.4229 2.3391 73.3229 2.1791 73.1829 2.0291C73.0929 1.9191 73.0729 1.8291 73.1129 1.7391C73.1529 1.6491 73.2329 1.6091 73.3429 1.6091H81.0729V3.1391H75.8329V4.6491H80.9129V6.1191H75.8329V7.1191L75.8129 7.1091Z" fill="#B7B7B7"/>
</g>
<defs>
<clipPath id="clip0_2968_391">
<rect width="86.73" height="14.12" fill="white" transform="translate(0.353027 0.90918)"/>
</clipPath>
</defs>
</svg>
