<svg width="218" height="44" viewBox="0 0 218 44" fill="none" xmlns="http://www.w3.org/2000/svg">
<g clip-path="url(#clip0_2903_1333)">
<path d="M107.983 0V1.97805H104.401V0H103.361V5.05416H104.401V3.0177H107.983V5.05416H109.027V0H107.983Z" fill="#192A18"/>
<path d="M115.479 0H109.65V1.04354H115.479V0Z" fill="#192A18"/>
<path d="M115.479 1.97021H109.65V3.01375H115.479V1.97021Z" fill="#192A18"/>
<path d="M115.479 4.01465H109.65V5.05819H115.479V4.01465Z" fill="#192A18"/>
<path d="M102.863 0H97.0142V1.04354H99.4166V5.05416H100.46V1.04354H102.863V0Z" fill="#192A18"/>
<path d="M69.7965 7.34766H68.6011L68.7062 7.6358C69.2397 7.64748 69.5706 7.88111 69.5706 8.41066V9.12323H73.6436V15.9335H75.4152V9.12323H79.4882V7.34766H69.8004H69.7965Z" fill="#192A18"/>
<path d="M81.1352 7.34766H79.9398L80.045 7.6358C80.5784 7.64748 80.9094 7.88111 80.9094 8.41067V9.11934H90.823V7.34766H81.1352Z" fill="#192A18"/>
<path d="M90.8231 10.7002H80.9094V12.4719H90.8231V10.7002Z" fill="#192A18"/>
<path d="M90.8231 14.1733H80.9094V15.945H90.8231V14.1733Z" fill="#192A18"/>
<path d="M99.9852 7.34764H92.4585H91.2631L91.3682 7.63579C91.9016 7.64747 92.2326 7.88109 92.2326 8.41065V9.1349L97.0298 9.12711H99.662V10.7391H92.2326V15.9413H94.0082V12.5186H96.9947L99.3855 15.9413H101.434L99.0429 12.5186H101.434V7.34375H99.9852V7.34764Z" fill="#192A18"/>
<path d="M110.588 7.34764H103.061H101.866L101.971 7.63579C102.504 7.64747 102.835 7.88109 102.835 8.41065V9.1349L107.633 9.12711H110.265V10.7391H102.835V15.9413H104.611V12.5186H107.598L109.988 15.9413H112.036L109.646 12.5186H112.036V7.34375H110.588V7.34764Z" fill="#192A18"/>
<path d="M121.132 7.34764H112.558L112.663 7.63579C113.197 7.64747 113.528 7.88109 113.528 8.41065V15.9413H115.303V12.3862H121.07V15.9413H122.846V7.34375H121.136L121.132 7.34764ZM121.07 10.268V10.6535H115.303V9.08428H121.07V10.268Z" fill="#192A18"/>
<path d="M133.569 9.09987V7.34766H123.465L123.57 7.6358C124.103 7.64748 124.434 7.88111 124.434 8.41066V15.9413H133.569V14.1891H126.206V9.09987H133.569Z" fill="#192A18"/>
<path d="M134.94 7.34766H133.97L134.075 7.6358C134.609 7.64748 134.94 7.88111 134.94 8.41067V9.11934H144.854V7.34766H134.94Z" fill="#192A18"/>
<path d="M144.854 10.7002H134.94V12.4719H144.854V10.7002Z" fill="#192A18"/>
<path d="M144.854 14.1733H134.94V15.945H144.854V14.1733Z" fill="#192A18"/>
<path d="M76.9689 29.9433L82.4942 29.9238V30.9362C82.4942 30.9362 81.3728 30.6948 81.4156 31.7111C81.4545 32.7235 83.2613 36.1111 83.2613 36.1111C83.4248 36.1383 83.2613 36.3214 84.0673 34.5847C85.029 32.5054 85.2588 31.9642 85.2082 31.8863C85.2082 31.8863 85.469 31.1465 84.9083 30.979H84.0556V29.9394H87.9455V30.9674C87.9455 30.9674 86.9993 30.9557 86.6255 31.5787C86.2517 32.2056 82.2255 41.7493 82.2255 41.7493C82.2255 41.7493 81.3455 43.1628 80.2786 43.5755C79.4804 43.8831 78.5069 43.6962 78.5069 43.6962V41.87L80.0021 41.8622C80.0839 41.8622 80.1657 41.8506 80.2436 41.8272C80.4928 41.7415 80.9795 41.4573 81.3377 40.5033C81.8673 39.0976 81.7154 38.8212 81.2209 37.8205C80.7264 36.8198 78.4213 31.8084 78.4213 31.8084C78.4213 31.8084 78.1954 31.1153 77.2336 30.9167L76.9299 30.9362L76.9572 29.9511L76.9689 29.9433Z" fill="#192A18"/>
<path d="M75.6411 31.9215C74.9674 31.3881 74.0602 30.7806 72.5416 30.8858C71.023 30.9909 70.5012 31.5243 70.3844 31.6723C70.2637 31.8203 70.3844 26.6143 70.3844 26.6143H66.3076V27.6189C66.3076 27.6189 67.0942 27.4592 67.2928 28.0861C67.4913 28.713 67.2928 40.1764 67.2928 40.1764H68.492C68.492 40.1764 69.0683 39.1718 69.4772 39.0822C69.8782 38.9966 71.2644 40.9396 73.3671 40.4684C75.4736 39.9973 76.6067 39.3042 77.0974 36.6291C77.7048 33.3272 75.6411 31.9215 75.6411 31.9215ZM74.3989 36.7654C74.0952 39.2613 72.8025 39.5066 72.8531 39.4755C72.9349 39.4249 70.9802 39.8454 70.4195 37.7505C70.4195 37.7505 70.0496 36.2164 70.4195 33.6971C70.7076 31.758 73.6046 31.1817 74.2393 33.3778C74.4963 34.2656 74.6014 35.0989 74.3989 36.7615V36.7654Z" fill="#192A18"/>
<path d="M4.14301 28.4911H9.12708V26.6182H1.30832H0L0.144071 27.0075C0.864425 27.0231 1.30832 27.3385 1.30832 28.055V39.9389H9.27505V38.066H4.13912V28.4911H4.14301Z" fill="#192A18"/>
<path d="M11.2102 26.6182V31.8592H8.46118V34.546H11.2102V40.2621H14.0449V26.6182H11.2102Z" fill="#192A18"/>
<path d="M32.6689 26.6182H30.2197V40.266H32.6689V26.6182Z" fill="#192A18"/>
<path d="M22.3699 31.7465H26.1546V29.8735H19.7688V39.939H26.3026V38.0661H22.3699V31.7465Z" fill="#192A18"/>
<path d="M19.7688 28.4911H26.1546V26.6182H18.4604L18.6045 27.0075C19.3249 27.0231 19.7688 27.3385 19.7688 28.055V28.495V28.4911Z" fill="#192A18"/>
<path d="M27.019 33.4907H25.0876V36.1775H27.019V40.2621H29.4721V26.6182H27.019V33.4907Z" fill="#192A18"/>
<path d="M47.0177 32.3498V26.6182H44.183V40.2621H47.0177V35.0366H48.5674V32.3498H47.0177Z" fill="#192A18"/>
<path d="M37.7816 34.3045H42.5982V26.6182H33.6385L33.7826 27.0075C34.503 27.0231 34.9469 27.3385 34.9469 28.0511V28.5067H39.7635V32.416H34.9469V39.9389H42.9136V38.066H37.7777V34.3045H37.7816Z" fill="#192A18"/>
<path d="M55.8877 32.0383C56.2654 32.3966 56.6898 32.747 57.1649 33.0897C57.636 33.4323 58.1383 33.7477 58.6718 34.0437C59.2052 34.3357 59.7543 34.6083 60.3228 34.8575C60.8913 35.1067 61.4675 35.3169 62.0555 35.4921V32.8054C61.5999 32.6652 61.0976 32.4589 60.5486 32.1863C59.9996 31.9137 59.4856 31.61 59.0066 31.2752C58.5277 30.9403 58.1267 30.586 57.7996 30.216C57.4725 29.8461 57.3089 29.4957 57.3089 29.1569V26.6182H53.1815L53.3256 27.0075C54.0459 27.0231 54.4898 27.3346 54.4898 28.0511V29.1608C54.4898 29.4957 54.3263 29.85 53.9992 30.2199C53.6721 30.5898 53.2672 30.9403 52.7921 31.279C52.3132 31.6139 51.7992 31.9215 51.2424 32.1902C50.6856 32.4628 50.1872 32.6691 49.7433 32.8093V35.496C50.9114 35.1378 52.0367 34.655 53.1192 34.0475C54.2017 33.4401 55.1284 32.7704 55.8955 32.0461L55.8877 32.0383Z" fill="#192A18"/>
<path d="M62.2191 38.3735H49.5681V40.262H62.2191V38.3735Z" fill="#192A18"/>
<path d="M109.938 25.0449H106.328V43.7508H109.938V25.0449Z" fill="#192A18"/>
<path d="M95.1102 35.5777H100.118V25.041H89.2811L89.4602 25.4888C90.3714 25.5083 90.9321 25.8665 90.9321 26.6881V27.6304H95.9162V32.9883H90.9321V43.2991H100.581V40.7331H95.1063V35.5777H95.1102Z" fill="#192A18"/>
<path d="M101.617 36.3603H98.7665V39.8219H101.617V43.7469H105.226V25.0449H101.617V36.3603Z" fill="#192A18"/>
<path d="M112.959 37.1858H131.104V34.5964H117.133V27.6343H131.104V25.0449H111.308L111.487 25.4927C112.395 25.5122 112.959 25.8704 112.959 26.692V37.1897V37.1858Z" fill="#192A18"/>
<path d="M131.35 41.1616H112.714V43.751H131.35V41.1616Z" fill="#192A18"/>
<path d="M155.678 27.6577H162.675V28.5299C162.675 28.8414 162.566 29.1646 162.344 29.4995C162.123 29.8343 161.827 30.1731 161.449 30.5157C161.071 30.8584 160.647 31.1972 160.172 31.532C159.697 31.8669 159.198 32.1745 158.673 32.4588C158.147 32.743 157.629 32.9961 157.115 33.218C156.601 33.44 156.122 33.6191 155.678 33.7554V37.217C157.395 36.7264 159.054 36.0644 160.651 35.2311C162.247 34.3979 163.61 33.4828 164.739 32.486C165.296 32.9766 165.923 33.4556 166.616 33.9267C167.313 34.394 168.053 34.8301 168.839 35.2311C169.626 35.6322 170.436 36.006 171.269 36.3487C172.102 36.6913 172.955 36.9795 173.823 37.2209V33.7593C173.154 33.5646 172.41 33.2726 171.6 32.8793C170.79 32.486 170.031 32.0421 169.33 31.5515C168.625 31.0609 168.033 30.5508 167.551 30.0212C167.068 29.4917 166.826 28.9972 166.826 28.5377V27.6655H173.823V25.0527H156.064H154.023L154.203 25.5005C155.114 25.52 155.674 25.8782 155.674 26.7037V27.6655L155.678 27.6577Z" fill="#192A18"/>
<path d="M174.069 41.1616H155.433V43.751H174.069V41.1616Z" fill="#192A18"/>
<path d="M176.129 27.6109H188.92V25.0449H176.514H174.474L174.653 25.4927C175.564 25.5122 176.125 25.8704 176.125 26.6959V27.6109H176.129Z" fill="#192A18"/>
<path d="M187.689 28.5493H183.542V40.7369H181.603V28.5493H177.453V40.7369H176.004V43.3029H189.04V40.7369H187.689V28.5493Z" fill="#192A18"/>
<path d="M194.149 32.9026V25.0449H189.975V43.7469H194.149V36.5823H196.431V32.9026H194.149Z" fill="#192A18"/>
<path d="M217.006 41.1226H198.37V43.7042H217.006V41.1226Z" fill="#192A18"/>
<path d="M198.615 26.6959V27.6265H212.586V31.3023H198.615V33.8838H212.586V37.8244H216.76V25.041H196.96L197.14 25.4888C198.051 25.5083 198.611 25.8665 198.611 26.692L198.615 26.6959Z" fill="#192A18"/>
<path d="M134.072 35.8931V38.4824H141.314V43.7469H145.465V38.4824H152.707V35.8931H134.072Z" fill="#192A18"/>
<path d="M134.979 26.6959C134.753 27.023 134.574 27.389 134.449 27.7901C134.278 28.3391 134.192 28.9348 134.192 29.5734C134.192 30.212 134.278 30.8311 134.449 31.3801C134.621 31.9292 134.885 32.4081 135.248 32.8092C135.606 33.2102 136.061 33.5256 136.61 33.7593C137.159 33.989 137.81 34.1058 138.561 34.1058H148.21C148.962 34.1058 149.612 33.989 150.161 33.7593C150.71 33.5295 151.162 33.2141 151.524 32.8092C151.882 32.4081 152.151 31.9331 152.322 31.3801C152.493 30.8311 152.579 30.2276 152.579 29.5734C152.579 28.9193 152.493 28.3391 152.322 27.7901C152.151 27.241 151.882 26.7582 151.524 26.3493C151.162 25.9405 150.706 25.6212 150.149 25.3915C149.592 25.1617 148.938 25.0449 148.187 25.0449H133.324L133.503 25.4927C134.414 25.5122 134.975 25.8704 134.975 26.6959H134.979ZM146.641 27.6343C147.229 27.6343 147.708 27.8017 148.078 28.1366C148.448 28.4715 148.631 28.9504 148.631 29.5773C148.631 30.2042 148.455 30.6442 148.101 30.9947C147.751 31.3451 147.264 31.5203 146.641 31.5203H140.134C139.511 31.5203 139.025 31.3451 138.674 30.9947C138.324 30.6442 138.145 30.1731 138.145 29.5773C138.145 28.9543 138.328 28.4715 138.697 28.1366C139.067 27.8017 139.546 27.6343 140.134 27.6343H146.641Z" fill="#192A18"/>
</g>
<defs>
<clipPath id="clip0_2903_1333">
<rect width="217.274" height="44" fill="white"/>
</clipPath>
</defs>
</svg>
