<svg width="421" height="85" viewBox="0 0 421 85" fill="none" xmlns="http://www.w3.org/2000/svg">
<g clip-path="url(#clip0_2906_1056)">
<path d="M209.236 0V3.82124H202.316V0H200.308V9.76372H202.316V5.82965H209.236V9.76372H211.252V0H209.236Z" fill="white"/>
<path d="M223.717 0H212.456V2.01593H223.717V0Z" fill="white"/>
<path d="M223.717 3.80615H212.456V5.82208H223.717V3.80615Z" fill="white"/>
<path d="M223.717 7.75537H212.456V9.7713H223.717V7.75537Z" fill="white"/>
<path d="M199.345 0H188.047V2.01593H192.688V9.76372H194.704V2.01593H199.345V0Z" fill="white"/>
<path d="M135.467 14.1943H133.158L133.361 14.751C134.391 14.7735 135.031 15.2249 135.031 16.2479V17.6244H142.899V30.7806H146.321V17.6244H154.19V14.1943H135.475H135.467Z" fill="white"/>
<path d="M157.372 14.1943H155.062L155.265 14.751C156.296 14.7735 156.935 15.2249 156.935 16.2479V17.6169H176.087V14.1943H157.372Z" fill="white"/>
<path d="M176.087 20.6709H156.935V24.0935H176.087V20.6709Z" fill="white"/>
<path d="M176.087 27.3809H156.935V30.8034H176.087V27.3809Z" fill="white"/>
<path d="M193.786 14.194H179.246H176.937L177.14 14.7507C178.17 14.7732 178.81 15.2246 178.81 16.2476V17.6467L188.077 17.6317H193.162V20.7458H178.81V30.7954H182.24V24.1834H188.009L192.628 30.7954H196.584L191.966 24.1834H196.584V14.1865H193.786V14.194Z" fill="white"/>
<path d="M214.269 14.194H199.728H197.419L197.622 14.7507C198.653 14.7732 199.292 15.2246 199.292 16.2476V17.6467L208.559 17.6317H213.644V20.7458H199.292V30.7954H202.722V24.1834H208.492L213.11 30.7954H217.067L212.448 24.1834H217.067V14.1865H214.269V14.194Z" fill="white"/>
<path d="M234.639 14.194H218.075L218.278 14.7507C219.309 14.7732 219.948 15.2246 219.948 16.2476V30.7954H223.378V23.9277H234.518V30.7954H237.948V14.1865H234.646L234.639 14.194ZM234.518 19.8356V20.5803H223.378V17.5489H234.518V19.8356Z" fill="white"/>
<path d="M258.664 17.5793V14.1943H239.145L239.348 14.751C240.378 14.7735 241.018 15.2249 241.018 16.2479V30.7957H258.664V27.4107H244.44V17.5793H258.664Z" fill="white"/>
<path d="M261.312 14.1943H259.439L259.642 14.751C260.673 14.7735 261.312 15.2249 261.312 16.2479V17.6169H280.464V14.1943H261.312Z" fill="white"/>
<path d="M280.464 20.6709H261.312V24.0935H280.464V20.6709Z" fill="white"/>
<path d="M280.464 27.3809H261.312V30.8034H280.464V27.3809Z" fill="white"/>
<path d="M149.323 57.8452L159.997 57.8076V59.7634C159.997 59.7634 157.83 59.297 157.913 61.2603C157.988 63.216 161.479 69.7603 161.479 69.7603C161.794 69.8129 161.479 70.1665 163.036 66.8116C164.894 62.7948 165.337 61.7492 165.24 61.5988C165.24 61.5988 165.744 60.1696 164.66 59.8461H163.013V57.8377H170.528V59.8235C170.528 59.8235 168.7 59.801 167.978 61.0045C167.256 62.2156 159.478 80.6523 159.478 80.6523C159.478 80.6523 157.778 83.3828 155.717 84.1802C154.175 84.7744 152.294 84.4134 152.294 84.4134V80.8855L155.183 80.8705C155.34 80.8705 155.498 80.8479 155.649 80.8027C156.13 80.6373 157.071 80.0881 157.763 78.2452C158.786 75.5297 158.492 74.9957 157.537 73.0625C156.582 71.1293 152.129 61.4483 152.129 61.4483C152.129 61.4483 151.692 60.1094 149.834 59.7258L149.248 59.7634L149.3 57.8603L149.323 57.8452Z" fill="#CDCDCD"/>
<path d="M146.758 61.6667C145.456 60.6362 143.704 59.4627 140.77 59.6658C137.836 59.8689 136.828 60.8995 136.603 61.1853C136.37 61.4711 136.603 51.4141 136.603 51.4141H128.727V53.3548C128.727 53.3548 130.247 53.0464 130.63 54.2574C131.014 55.4685 130.63 77.6136 130.63 77.6136H132.947C132.947 77.6136 134.06 75.6729 134.85 75.4999C135.625 75.3344 138.303 79.088 142.365 78.1778C146.434 77.2676 148.623 75.9287 149.571 70.761C150.744 64.3822 146.758 61.6667 146.758 61.6667ZM144.358 71.0242C143.771 75.8459 141.274 76.3198 141.372 76.2596C141.53 76.1618 137.754 76.9742 136.67 72.9273C136.67 72.9273 135.956 69.9636 136.67 65.0968C137.227 61.3508 142.824 60.2375 144.05 64.48C144.546 66.195 144.749 67.8048 144.358 71.0167V71.0242Z" fill="#CDCDCD"/>
<path d="M8.63635 55.0395H18.2647V51.4214H3.16025H0.632812L0.911131 52.1736C2.30272 52.2037 3.16025 52.813 3.16025 54.1971V77.1546H18.5505V73.5364H8.62883V55.0395H8.63635Z" fill="white"/>
<path d="M22.2889 51.4214V61.5462H16.9783V66.7364H22.2889V77.7789H27.765V51.4214H22.2889Z" fill="white"/>
<path d="M63.7434 51.4214H59.012V77.7864H63.7434V51.4214Z" fill="white"/>
<path d="M43.8473 61.3281H51.1588V57.71H38.8225V77.1546H51.4446V73.5365H43.8473V61.3281Z" fill="white"/>
<path d="M38.8226 55.0395H51.1589V51.4214H36.2952L36.5735 52.1736C37.9651 52.2037 38.8226 52.813 38.8226 54.1971V55.0471V55.0395Z" fill="white"/>
<path d="M52.8289 64.6979H49.0979V69.8882H52.8289V77.7789H57.5678V51.4214H52.8289V64.6979Z" fill="white"/>
<path d="M91.4624 62.494V51.4214H85.9863V77.7789H91.4624V67.6842H94.4562V62.494H91.4624Z" fill="white"/>
<path d="M73.62 66.2701H82.9249V51.4214H65.6165L65.8948 52.1736C67.2864 52.2037 68.1439 52.813 68.1439 54.1895V55.0696H77.4488V62.6218H68.1439V77.1546H83.5342V73.5364H73.6125V66.2701H73.62Z" fill="white"/>
<path d="M108.598 61.8922C109.327 62.5842 110.147 63.2612 111.065 63.9232C111.975 64.5851 112.945 65.1944 113.976 65.7661C115.007 66.3302 116.067 66.8568 117.165 67.3382C118.264 67.8196 119.377 68.2258 120.513 68.5643V63.374C119.633 63.1032 118.662 62.7046 117.602 62.178C116.541 61.6515 115.548 61.0647 114.623 60.4178C113.698 59.7709 112.923 59.0864 112.291 58.3718C111.659 57.6572 111.343 56.9802 111.343 56.3258V51.4214H103.37L103.648 52.1736C105.04 52.2037 105.897 52.8055 105.897 54.1895V56.3333C105.897 56.9802 105.581 57.6647 104.949 58.3794C104.318 59.094 103.535 59.7709 102.618 60.4254C101.692 61.0723 100.699 61.6665 99.6238 62.1855C98.5481 62.7121 97.5853 63.1108 96.7278 63.3816V68.5718C98.9844 67.8798 101.158 66.9471 103.249 65.7736C105.341 64.6001 107.131 63.3063 108.613 61.9072L108.598 61.8922Z" fill="white"/>
<path d="M120.829 74.1309H96.3894V77.7791H120.829V74.1309Z" fill="white"/>
<path d="M213.013 48.3823H206.04V84.5186H213.013V48.3823Z" fill="white"/>
<path d="M184.368 68.7299H194.042V48.375H173.108L173.454 49.24C175.214 49.2777 176.297 49.9697 176.297 51.5569V53.3772H185.925V63.7277H176.297V83.6462H194.937V78.6892H184.361V68.7299H184.368Z" fill="white"/>
<path d="M196.938 70.2416H191.432V76.9288H196.938V84.5111H203.911V48.3823H196.938V70.2416Z" fill="white"/>
<path d="M218.85 71.8363H253.903V66.8341H226.914V53.3845H253.903V48.3823H215.66L216.006 49.2474C217.759 49.285 218.85 49.977 218.85 51.5642V71.8438V71.8363Z" fill="white"/>
<path d="M254.377 79.5166H218.376V84.5188H254.377V79.5166Z" fill="white"/>
<path d="M301.375 53.4298H314.892V55.1147C314.892 55.7165 314.682 56.3408 314.253 56.9877C313.824 57.6346 313.252 58.2891 312.523 58.951C311.793 59.613 310.973 60.2674 310.055 60.9143C309.138 61.5612 308.175 62.1554 307.159 62.7045C306.144 63.2537 305.143 63.7426 304.151 64.1714C303.158 64.6001 302.232 64.9461 301.375 65.2094V71.8966C304.692 70.9488 307.897 69.67 310.981 68.0603C314.065 66.4506 316.697 64.6829 318.879 62.7572C319.955 63.705 321.166 64.6302 322.505 65.5404C323.851 66.443 325.28 67.2855 326.8 68.0603C328.319 68.8351 329.884 69.5572 331.493 70.2191C333.103 70.8811 334.751 71.4377 336.428 71.9041V65.2169C335.134 64.8408 333.697 64.2767 332.133 63.5169C330.568 62.7572 329.101 61.8997 327.747 60.9519C326.386 60.0041 325.243 59.0187 324.31 57.9957C323.377 56.9727 322.911 56.0174 322.911 55.1298V53.4448H336.428V48.3975H302.12H298.178L298.524 49.2625C300.284 49.3001 301.367 49.9922 301.367 51.5868V53.4448L301.375 53.4298Z" fill="white"/>
<path d="M336.902 79.5166H300.901V84.5188H336.902V79.5166Z" fill="white"/>
<path d="M340.881 53.3394H365.591V48.3823H341.626H337.684L338.03 49.2474C339.791 49.285 340.874 49.977 340.874 51.5717V53.3394H340.881Z" fill="white"/>
<path d="M363.214 55.1523H355.203V78.6966H351.457V55.1523H343.439V78.6966H340.641V83.6537H365.825V78.6966H363.214V55.1523Z" fill="white"/>
<path d="M375.694 63.562V48.3823H367.63V84.5111H375.694V70.6704H380.102V63.562H375.694Z" fill="white"/>
<path d="M419.849 79.4414H383.848V84.4286H419.849V79.4414Z" fill="white"/>
<path d="M384.321 51.5719V53.3697H411.311V60.4706H384.321V65.4577H411.311V73.0701H419.375V48.375H381.125L381.471 49.24C383.231 49.2777 384.314 49.9697 384.314 51.5644L384.321 51.5719Z" fill="white"/>
<path d="M259.635 69.3389V74.3411H273.626V84.511H281.644V74.3411H295.636V69.3389H259.635Z" fill="white"/>
<path d="M261.387 51.5717C260.951 52.2036 260.605 52.9106 260.364 53.6854C260.033 54.746 259.868 55.8969 259.868 57.1306C259.868 58.3642 260.033 59.5602 260.364 60.6208C260.695 61.6814 261.207 62.6067 261.906 63.3814C262.598 64.1562 263.478 64.7655 264.539 65.2168C265.6 65.6606 266.856 65.8863 268.308 65.8863H286.948C288.399 65.8863 289.655 65.6606 290.716 65.2168C291.777 64.773 292.649 64.1637 293.349 63.3814C294.041 62.6067 294.56 61.689 294.891 60.6208C295.222 59.5602 295.387 58.3943 295.387 57.1306C295.387 55.8668 295.222 54.746 294.891 53.6854C294.56 52.6248 294.041 51.6921 293.349 50.9022C292.649 50.1124 291.769 49.4956 290.694 49.0518C289.618 48.608 288.354 48.3823 286.902 48.3823H258.19L258.536 49.2474C260.297 49.285 261.38 49.977 261.38 51.5717H261.387ZM283.916 53.3845C285.052 53.3845 285.977 53.708 286.692 54.3549C287.406 55.0018 287.76 55.927 287.76 57.1381C287.76 58.3491 287.421 59.1991 286.737 59.8761C286.06 60.5531 285.12 60.8916 283.916 60.8916H271.347C270.143 60.8916 269.203 60.5531 268.526 59.8761C267.849 59.1991 267.503 58.289 267.503 57.1381C267.503 55.9345 267.856 55.0018 268.571 54.3549C269.286 53.708 270.211 53.3845 271.347 53.3845H283.916Z" fill="white"/>
</g>
<defs>
<clipPath id="clip0_2906_1056">
<rect width="419.735" height="85" fill="white" transform="translate(0.632812)"/>
</clipPath>
</defs>
</svg>
