<svg width="34" height="47" viewBox="0 0 34 47" fill="none" xmlns="http://www.w3.org/2000/svg">
<rect x="2.5" width="29" height="29" rx="14.5" fill="#CCCCCC"/>
<path d="M10 14.5L11.2337 15.7337L16.125 10.8512V21.5H17.875V10.8512L22.7575 15.7425L24 14.5L17 7.5L10 14.5Z" fill="white"/>
<path d="M4.03572 46V37.48H0.675723V35.5H9.82572V37.48H6.46572V46H4.03572ZM16.0867 46.18C15.2567 46.18 14.4867 46.045 13.7767 45.775C13.0767 45.505 12.4667 45.125 11.9467 44.635C11.4367 44.145 11.0367 43.57 10.7467 42.91C10.4667 42.25 10.3267 41.53 10.3267 40.75C10.3267 39.97 10.4667 39.25 10.7467 38.59C11.0367 37.93 11.4417 37.355 11.9617 36.865C12.4817 36.375 13.0917 35.995 13.7917 35.725C14.4917 35.455 15.2517 35.32 16.0717 35.32C16.9017 35.32 17.6617 35.455 18.3517 35.725C19.0517 35.995 19.6567 36.375 20.1667 36.865C20.6867 37.355 21.0917 37.93 21.3817 38.59C21.6717 39.24 21.8167 39.96 21.8167 40.75C21.8167 41.53 21.6717 42.255 21.3817 42.925C21.0917 43.585 20.6867 44.16 20.1667 44.65C19.6567 45.13 19.0517 45.505 18.3517 45.775C17.6617 46.045 16.9067 46.18 16.0867 46.18ZM16.0717 44.11C16.5417 44.11 16.9717 44.03 17.3617 43.87C17.7617 43.71 18.1117 43.48 18.4117 43.18C18.7117 42.88 18.9417 42.525 19.1017 42.115C19.2717 41.705 19.3567 41.25 19.3567 40.75C19.3567 40.25 19.2717 39.795 19.1017 39.385C18.9417 38.975 18.7117 38.62 18.4117 38.32C18.1217 38.02 17.7767 37.79 17.3767 37.63C16.9767 37.47 16.5417 37.39 16.0717 37.39C15.6017 37.39 15.1667 37.47 14.7667 37.63C14.3767 37.79 14.0317 38.02 13.7317 38.32C13.4317 38.62 13.1967 38.975 13.0267 39.385C12.8667 39.795 12.7867 40.25 12.7867 40.75C12.7867 41.24 12.8667 41.695 13.0267 42.115C13.1967 42.525 13.4267 42.88 13.7167 43.18C14.0167 43.48 14.3667 43.71 14.7667 43.87C15.1667 44.03 15.6017 44.11 16.0717 44.11ZM23.6429 46V35.5H28.1879C29.1279 35.5 29.9379 35.655 30.6179 35.965C31.2979 36.265 31.823 36.7 32.193 37.27C32.563 37.84 32.748 38.52 32.748 39.31C32.748 40.09 32.563 40.765 32.193 41.335C31.823 41.905 31.2979 42.345 30.6179 42.655C29.9379 42.955 29.1279 43.105 28.1879 43.105H24.9929L26.0729 42.01V46H23.6429ZM26.0729 42.28L24.9929 41.125H28.0529C28.8029 41.125 29.3629 40.965 29.7329 40.645C30.1029 40.325 30.2879 39.88 30.2879 39.31C30.2879 38.73 30.1029 38.28 29.7329 37.96C29.3629 37.64 28.8029 37.48 28.0529 37.48H24.9929L26.0729 36.325V42.28Z" fill="black"/>
</svg>
