<svg width="88" height="16" viewBox="0 0 88 16" fill="none" xmlns="http://www.w3.org/2000/svg">
<g clip-path="url(#clip0_2968_400)">
<path d="M27.1763 14.4507C26.096 12.632 25.2566 10.6657 25.2566 8.59057C25.2566 6.51544 26.096 4.53358 27.1607 2.73047H28.583C27.4716 4.84446 26.8032 6.6398 26.8032 8.59057C26.8032 10.5413 27.4716 12.3211 28.5908 14.4507H27.1685H27.1763Z" fill="#B7B7B7"/>
<path d="M35.5546 10.7745V13.8678H33.6504V10.7745H28.9717V9.26673H40.2333V10.7745H35.5546ZM30.4017 4.59574V3.10352H38.8033V4.59574H35.6168C35.7644 6.08797 37.5131 7.09056 39.4872 7.23823L38.6012 8.48953C37.2333 8.43512 35.4924 7.67346 34.5909 6.64756C33.6971 7.68124 31.9484 8.43512 30.596 8.48953L29.71 7.23823C31.6763 7.09056 33.4328 6.08797 33.5805 4.59574H30.394H30.4017Z" fill="#B7B7B7"/>
<path d="M41.5156 14.4507H40.1011C41.2202 12.3211 41.8964 10.518 41.8964 8.59057C41.8964 6.66311 41.2202 4.84446 40.1088 2.73047H41.5311C42.5959 4.53358 43.4508 6.48435 43.4508 8.59057C43.4508 10.6968 42.6037 12.632 41.5234 14.4507" fill="#B7B7B7"/>
<path d="M50.7643 2.76953H52.5752V6.27471H53.3679V2.76953H55.1788V13.8213H53.3679V7.30839H52.5752V13.8213H50.7643V10.6037C50.2358 10.7669 49.5674 10.8835 48.8679 10.8835H45.5726C45.2695 10.8835 45.0208 10.5804 45.0208 10.2928V3.57005H49.8705V5.10114H46.9404V6.45347H49.785V7.90684H46.9404V9.34466H49.0156C49.6451 9.34466 50.2358 9.27471 50.7798 9.15036V2.76953H50.7643Z" fill="#B7B7B7"/>
<path d="M65.1426 2.75419H67.0545V4.86041H68.4068V5.84746H67.0545V9.55471H65.1426V8.95627C64.5985 9.10394 63.9379 9.20497 63.2151 9.20497H56.7954V7.90704H60.0208V7.40964C58.9016 7.05989 58.1089 6.15057 58.1089 5.0858C58.1089 3.73347 59.3757 2.62207 60.9768 2.62207C62.5778 2.62207 63.8602 3.73347 63.8602 5.0858C63.8602 6.15057 63.0674 7.05989 61.9483 7.39409V7.89927H63.355C64.0001 7.89927 64.5985 7.8371 65.1426 7.71274V2.75419ZM60.9768 3.98995C60.4327 3.98995 59.9975 4.49513 59.9975 5.09357C59.9975 5.69202 60.4405 6.1972 60.9768 6.1972C61.513 6.1972 61.9716 5.67647 61.9716 5.09357C61.9716 4.51067 61.5208 3.98995 60.9768 3.98995ZM63.4094 14.319C61.7384 14.319 60.4016 13.2076 60.4016 11.8708C60.4016 10.534 61.7384 9.44591 63.4094 9.44591C65.0804 9.44591 66.4327 10.534 66.4327 11.8708C66.4327 13.2076 65.0882 14.319 63.4094 14.319ZM63.4094 10.7827C62.7876 10.7827 62.2902 11.2801 62.2902 11.8708C62.2902 12.4614 62.7954 12.9822 63.4094 12.9822C64.0234 12.9822 64.5441 12.4848 64.5441 11.8708C64.5441 11.2568 64.0312 10.7827 63.4094 10.7827Z" fill="#B7B7B7"/>
<path d="M71.3213 12.531V10.7823H74.772V9.46879H71.3213V7.97656H74.9508V6.66309H74.8031H69.6736V13.8444H75.0207V12.531H71.3213Z" fill="#B7B7B7"/>
<path d="M80.0727 12.6626C80.298 12.2818 80.4535 11.8154 80.5001 11.3258L80.5157 11.1704H79.3265V11.3103C79.3265 11.4268 79.2721 11.5434 79.241 11.6678C79.0934 11.4968 78.9768 11.3569 78.8835 11.2403C79.3732 10.9527 79.7929 10.603 79.7929 9.97347C79.7929 9.09523 79.0157 8.62891 78.2462 8.62891C77.4768 8.62891 76.7385 9.07968 76.7385 9.91906C76.7385 10.2455 76.9017 10.5875 77.197 10.9683C76.6996 11.2947 76.1633 11.7921 76.1633 12.4761C76.1633 13.4942 77.096 14.0382 77.9742 14.0382C78.4483 14.0382 78.9069 13.8517 79.311 13.5408C79.412 13.6574 79.6452 13.9294 79.6452 13.9294H81.1297C81.1297 13.9294 80.1815 12.7869 80.0804 12.6626M78.2385 9.6315C78.3628 9.6315 78.5882 9.70145 78.5882 9.95015C78.5882 10.16 78.4328 10.2843 78.2074 10.4087C78.0131 10.16 77.9509 9.99678 77.9509 9.92683C77.9664 9.65481 78.1763 9.6315 78.2462 9.6315M77.8654 11.7999C77.9975 11.9631 78.4794 12.546 78.6193 12.7092C78.425 12.888 78.1918 13.0123 77.982 13.0123C77.6866 13.0123 77.3913 12.8258 77.3913 12.4838C77.3913 12.2274 77.5623 12.0097 77.8732 11.7999" fill="#B7B7B7"/>
<path d="M86.2979 11.0625L86.2668 11.1713C86.0415 12.0651 85.4897 12.6246 84.8368 12.6246C83.9508 12.6246 83.228 11.5599 83.228 10.2542C83.228 8.94847 83.9508 7.86816 84.8368 7.86816C85.4586 7.86816 85.9871 8.36557 86.228 9.17386L86.2591 9.27489H87.9612L87.9067 9.08837C87.4171 7.47956 86.3057 6.55469 84.8446 6.55469C83.0415 6.55469 81.5803 8.2179 81.5803 10.2542C81.5803 12.2904 83.0415 13.9459 84.8446 13.9459C86.3135 13.9459 87.5337 12.8811 87.9612 11.2412L88.0078 11.0625H86.3057H86.2979Z" fill="#B7B7B7"/>
<path d="M11.6433 0.472197L8.19751 3.91797L11.6433 7.36374L15.0891 3.91797L11.6433 0.472197Z" fill="#B7B7B7"/>
<path d="M7.57601 4.52456L4.12964 7.96973L7.57481 11.4161L11.0212 7.97093L7.57601 4.52456Z" fill="#B7B7B7"/>
<path d="M15.7012 4.51787L12.2566 7.96484L15.7036 11.4094L19.1481 7.96244L15.7012 4.51787Z" fill="#B7B7B7"/>
<path d="M3.52927 8.58157L0.0834961 12.0273L3.52927 15.4731L6.97504 12.0273L3.52927 8.58157Z" fill="#B7B7B7"/>
<path d="M11.6438 8.58232L8.19922 12.0293L11.6462 15.4739L15.0908 12.0269L11.6438 8.58232Z" fill="#B7B7B7"/>
<path d="M19.7457 8.58022L16.2993 12.0254L19.7445 15.4718L23.1909 12.0266L19.7457 8.58022Z" fill="#B7B7B7"/>
</g>
<defs>
<clipPath id="clip0_2968_400">
<rect width="87.9171" height="15" fill="white" transform="translate(0.0830078 0.46875)"/>
</clipPath>
</defs>
</svg>
