<svg width="38" height="44" viewBox="0 0 38 44" fill="none" xmlns="http://www.w3.org/2000/svg">
<path d="M3.36152 42.1347C2.97461 42.1347 2.59979 42.0742 2.23706 41.9533C1.87779 41.8324 1.56342 41.6597 1.29397 41.4351C1.02451 41.2106 0.834515 40.9428 0.72397 40.6319L1.40279 40.378C1.47879 40.5922 1.61697 40.777 1.81733 40.9325C2.02115 41.0845 2.25779 41.2019 2.52724 41.2848C2.80015 41.3678 3.07824 41.4092 3.36152 41.4092C3.69315 41.4092 4.00233 41.3539 4.28906 41.2434C4.57579 41.1328 4.80724 40.9791 4.98342 40.7822C5.15961 40.5818 5.2477 40.3469 5.2477 40.0775C5.2477 39.8046 5.15615 39.58 4.97306 39.4038C4.78997 39.2277 4.55333 39.0895 4.26315 38.9893C3.97642 38.8857 3.67588 38.8062 3.36152 38.7509C2.86752 38.6646 2.42361 38.5471 2.02979 38.3986C1.63942 38.25 1.33024 38.041 1.10224 37.7716C0.874242 37.4987 0.760242 37.1394 0.760242 36.6938C0.760242 36.2758 0.881151 35.913 1.12297 35.6056C1.36479 35.2981 1.68261 35.0598 2.07642 34.8905C2.4737 34.7212 2.90206 34.6366 3.36152 34.6366C3.73806 34.6366 4.10597 34.6953 4.46524 34.8128C4.82452 34.9302 5.14061 35.1012 5.41352 35.3258C5.68988 35.5503 5.88852 35.8249 6.00942 36.1497L5.32024 36.3984C5.24424 36.1808 5.10433 35.9959 4.90052 35.8439C4.70015 35.6885 4.46524 35.571 4.19579 35.4916C3.92633 35.4087 3.64824 35.3672 3.36152 35.3672C3.03333 35.3638 2.72588 35.419 2.43915 35.533C2.15588 35.6436 1.92615 35.799 1.74997 35.9994C1.57379 36.1963 1.4857 36.4278 1.4857 36.6938C1.4857 37.0047 1.56688 37.2448 1.72924 37.414C1.89506 37.5798 2.11961 37.7042 2.40288 37.7871C2.68615 37.87 3.0057 37.9443 3.36152 38.0099C3.82442 38.0894 4.25452 38.2138 4.65179 38.383C5.04906 38.5488 5.36861 38.7717 5.61042 39.0515C5.85224 39.3278 5.97315 39.6698 5.97315 40.0775C5.97315 40.492 5.85224 40.8548 5.61042 41.1657C5.36861 41.4731 5.04906 41.7115 4.65179 41.8808C4.25797 42.05 3.82788 42.1347 3.36152 42.1347ZM10.4603 42.1347C9.96974 42.1347 9.50856 42.0379 9.07674 41.8445C8.64492 41.6476 8.26492 41.3781 7.93674 41.0361C7.61201 40.6907 7.35637 40.2899 7.16983 39.8339C6.98674 39.3779 6.89519 38.8908 6.89519 38.3727C6.89519 37.8545 6.98674 37.3674 7.16983 36.9114C7.35637 36.4554 7.61201 36.0564 7.93674 35.7144C8.26492 35.3689 8.64492 35.0995 9.07674 34.906C9.50856 34.7091 9.96974 34.6107 10.4603 34.6107C11.0476 34.6107 11.5882 34.7471 12.0822 35.02C12.5762 35.2929 12.9856 35.6557 13.3103 36.1082L12.6677 36.4554C12.4121 36.1134 12.0874 35.8422 11.6936 35.6418C11.3032 35.438 10.8921 35.3361 10.4603 35.3361C10.063 35.3361 9.69165 35.4173 9.34619 35.5797C9.00419 35.7386 8.70365 35.9579 8.44456 36.2378C8.18546 36.5176 7.98337 36.8406 7.83828 37.2068C7.69319 37.5729 7.62065 37.9616 7.62065 38.3727C7.62065 38.7907 7.69319 39.1828 7.83828 39.5489C7.98683 39.9151 8.19065 40.2381 8.44974 40.5179C8.71228 40.7978 9.01456 41.0171 9.35656 41.176C9.70201 41.3315 10.0699 41.4092 10.4603 41.4092C10.9094 41.4092 11.3256 41.3073 11.7091 41.1035C12.096 40.8962 12.4156 40.6268 12.6677 40.2951L13.3103 40.6423C12.9856 41.0948 12.5762 41.4576 12.0822 41.7305C11.5882 41.9999 11.0476 42.1347 10.4603 42.1347ZM14.3793 41.9999V34.7454H16.8406C17.2275 34.7454 17.5765 34.8404 17.8874 35.0304C18.1983 35.2169 18.4453 35.4708 18.6284 35.7921C18.8115 36.1099 18.903 36.4675 18.903 36.8648C18.903 37.2206 18.8305 37.5436 18.6854 37.8338C18.5403 38.1239 18.3416 38.364 18.0895 38.554C17.8407 38.744 17.5592 38.8701 17.2448 38.9323L19.017 41.9999H18.1775L16.4313 38.9893H15.1047V41.9999H14.3793ZM15.1047 38.2638H16.7785C17.0341 38.2638 17.2673 38.2017 17.478 38.0773C17.6922 37.9495 17.8615 37.7785 17.9858 37.5643C18.1136 37.3467 18.1775 37.1014 18.1775 36.8285C18.1775 36.5556 18.1136 36.312 17.9858 36.0978C17.8615 35.8802 17.6922 35.7092 17.478 35.5848C17.2673 35.457 17.0341 35.3931 16.7785 35.3931H15.1047V38.2638ZM23.3847 42.1347C22.8942 42.1347 22.433 42.0379 22.0012 41.8445C21.5693 41.6476 21.1893 41.3764 20.8612 41.0309C20.533 40.6855 20.2756 40.2865 20.0891 39.8339C19.9025 39.3779 19.8093 38.8908 19.8093 38.3727C19.8093 37.8545 19.9025 37.3691 20.0891 36.9166C20.2756 36.4606 20.533 36.0598 20.8612 35.7144C21.1893 35.3689 21.5693 35.0995 22.0012 34.906C22.433 34.7091 22.8942 34.6107 23.3847 34.6107C23.8787 34.6107 24.3416 34.7091 24.7734 34.906C25.2053 35.0995 25.5853 35.3689 25.9134 35.7144C26.2416 36.0598 26.4973 36.4606 26.6803 36.9166C26.8669 37.3691 26.9602 37.8545 26.9602 38.3727C26.9602 38.8908 26.8669 39.3779 26.6803 39.8339C26.4973 40.2865 26.2416 40.6855 25.9134 41.0309C25.5853 41.3764 25.2053 41.6476 24.7734 41.8445C24.3416 42.0379 23.8787 42.1347 23.3847 42.1347ZM23.3847 41.4092C23.782 41.4092 24.1516 41.3298 24.4936 41.1708C24.8391 41.0085 25.1413 40.7874 25.4004 40.5076C25.663 40.2278 25.8668 39.9048 26.0119 39.5386C26.1604 39.1724 26.2347 38.7838 26.2347 38.3727C26.2347 37.9581 26.1604 37.5678 26.0119 37.2016C25.8633 36.8319 25.6578 36.5089 25.3953 36.2326C25.1362 35.9528 24.8339 35.7334 24.4884 35.5745C24.1464 35.4156 23.7785 35.3361 23.3847 35.3361C22.9874 35.3361 22.6161 35.4173 22.2706 35.5797C21.9286 35.7386 21.6263 35.9579 21.3638 36.2378C21.1047 36.5176 20.9009 36.8406 20.7523 37.2068C20.6073 37.5729 20.5347 37.9616 20.5347 38.3727C20.5347 38.7907 20.609 39.1828 20.7575 39.5489C20.9061 39.9151 21.1099 40.2381 21.369 40.5179C21.6315 40.7978 21.9338 41.0171 22.2758 41.176C22.6213 41.3315 22.9909 41.4092 23.3847 41.4092ZM28.0119 41.9999V34.7454H28.7374V41.2745H32.0693V41.9999H28.0119ZM33.214 41.9999V34.7454H33.9394V41.2745H37.2713V41.9999H33.214Z" fill="white"/>
<rect x="11.5152" y="1.48478" width="13.8182" height="25.3333" rx="6.90909" stroke="#EEEEEE" stroke-width="1.15152"/>
<path d="M19 18.1818L19 22.7878" stroke="white" stroke-width="1.15152" stroke-linecap="round"/>
</svg>
