<svg width="609" height="185" viewBox="0 0 609 185" fill="none" xmlns="http://www.w3.org/2000/svg">
<g clip-path="url(#clip0_3091_834)">
<path d="M303.055 0V5.54219H292.984V0H290.056V14.1677H292.984V8.46941H303.055V14.1677H305.983V0H303.055Z" fill="#231815"/>
<path d="M324.097 0H307.74V2.92722H324.097V0Z" fill="#231815"/>
<path d="M324.097 5.54199H307.74V8.46921H324.097V5.54199Z" fill="#231815"/>
<path d="M324.097 11.2402H307.74V14.1674H324.097V11.2402Z" fill="#231815"/>
<path d="M288.689 0H272.254V2.92722H279.008V14.1677H281.935V2.92722H288.689V0Z" fill="#231815"/>
<path d="M195.895 20.6074H192.538L192.85 21.427C194.333 21.427 195.27 22.1296 195.27 23.6127V25.6032H206.709V44.6886H211.666V25.6032H223.105V20.6074H195.895Z" fill="#231815"/>
<path d="M227.711 20.6074H224.354L224.666 21.427C226.15 21.427 227.087 22.1296 227.087 23.6127V25.6032H254.921V20.6465H227.711V20.6074Z" fill="#231815"/>
<path d="M254.882 30.0137H227.048V34.9704H254.882V30.0137Z" fill="#231815"/>
<path d="M254.882 39.7705H227.048V44.7273H254.882V39.7705Z" fill="#231815"/>
<path d="M280.608 20.6074H259.489H256.131L256.444 21.427C257.927 21.427 258.864 22.1296 258.864 23.6127V25.6422H272.332H279.711V30.1697H258.864V44.7277H263.861V35.1264H272.254L278.969 44.7277H284.707L277.993 35.1264H284.707V20.6074H280.647H280.608Z" fill="#231815"/>
<path d="M310.356 20.6074H289.236H285.878L286.191 21.427C287.674 21.427 288.611 22.1296 288.611 23.6127V25.6422H302.079H309.458V30.1697H288.611V44.7277H293.608V35.1264H302.001L308.716 44.7277H314.455L307.74 35.1264H314.455V20.6074H310.395H310.356Z" fill="#231815"/>
<path d="M339.947 20.6074H315.899L316.211 21.427C317.695 21.427 318.632 22.1296 318.632 23.6127V44.7277H323.629V34.7361H339.83V44.7277H344.826V20.6074H340.025H339.947ZM339.751 28.8036V29.8965H323.55V25.4861H339.751V28.8036Z" fill="#231815"/>
<path d="M374.847 25.5251V20.6074H346.505L346.818 21.427C348.301 21.427 349.238 22.1296 349.238 23.6127V44.7277H374.886V39.81H354.235V25.5251H374.886H374.847Z" fill="#231815"/>
<path d="M378.712 20.6074H375.979L376.292 21.427C377.775 21.427 378.712 22.1296 378.712 23.6127V25.6032H406.547V20.6465H378.712V20.6074Z" fill="#231815"/>
<path d="M406.547 30.0137H378.712V34.9704H406.547V30.0137Z" fill="#231815"/>
<path d="M406.547 39.7705H378.712V44.7273H406.547V39.7705Z" fill="#231815"/>
<path d="M216 80.8301H231.498V83.6402C231.498 83.6402 228.375 82.9767 228.453 85.8259C228.57 88.675 233.645 98.1592 233.645 98.1592C234.114 98.2373 233.645 98.7446 235.91 93.8659C238.603 88.0505 239.267 86.5284 239.111 86.2942C239.111 86.2942 239.852 84.2256 238.252 83.7573H235.871V80.8301H246.801V83.7183C246.801 83.7183 244.147 83.7183 243.093 85.4356C242.039 87.1919 230.757 113.966 230.757 113.966C230.757 113.966 228.297 117.947 225.291 119.079C223.066 119.938 220.333 119.43 220.333 119.43V114.317H224.549C224.784 114.317 225.018 114.278 225.213 114.2C225.916 113.966 227.282 113.147 228.297 110.493C229.781 106.551 229.351 105.77 227.985 102.96C226.618 100.15 220.138 86.0991 220.138 86.0991C220.138 86.0991 219.513 84.1476 216.82 83.6012H215.961L216.039 80.8691L216 80.8301Z" fill="#040000"/>
<path d="M212.291 86.3722C210.378 84.8891 207.841 83.1718 203.585 83.4841C199.33 83.7963 197.847 85.2794 197.534 85.7087C197.183 86.1381 197.534 71.541 197.534 71.541H186.096V74.3511C186.096 74.3511 188.321 73.9218 188.868 75.6781C189.414 77.4345 188.868 109.595 188.868 109.595H192.225C192.225 109.595 193.865 106.785 194.997 106.511C196.129 106.277 199.994 111.702 205.928 110.414C211.823 109.087 215.024 107.136 216.39 99.6423C218.108 90.3923 212.291 86.4113 212.291 86.4113V86.3722ZM208.778 99.9545C207.919 106.941 204.288 107.643 204.444 107.565C204.679 107.409 199.174 108.58 197.613 102.726C197.613 102.726 196.559 98.4324 197.613 91.368C198.432 85.9429 206.552 84.3037 208.348 90.4703C209.09 92.9682 209.363 95.31 208.817 99.9545H208.778Z" fill="#040000"/>
<path d="M11.6335 76.7319H25.6092V71.4629H3.66962H0L0.390385 72.5557C2.42038 72.5947 3.66962 73.4924 3.66962 75.4829V108.814H26.0387V103.545H11.6335V76.6928V76.7319Z" fill="#231815"/>
<path d="M31.465 71.502V86.2161H23.7354V93.7488H31.465V109.79H39.4288V71.502H31.465Z" fill="#231815"/>
<path d="M91.7013 71.502H84.8306V109.79H91.7013V71.502Z" fill="#231815"/>
<path d="M62.7738 85.8647H73.3923V80.6348H55.4736V108.853H73.8217V103.623H62.7738V85.8647Z" fill="#231815"/>
<path d="M55.4738 76.7319H73.3925V71.4629H51.8042L52.1946 72.5557C54.2246 72.5947 55.4738 73.4924 55.4738 75.4829V76.7319Z" fill="#231815"/>
<path d="M75.8131 90.7825H70.3867V98.3152H75.8131V109.79H82.7229V71.502H75.8131V90.7825Z" fill="#231815"/>
<path d="M131.95 87.5821V71.502H123.986V109.79H131.95V95.1148H136.322V87.5821H131.95Z" fill="#231815"/>
<path d="M106.028 93.0462H119.536V71.4629H94.395L94.7854 72.5557C96.8154 72.5947 98.0646 73.4924 98.0646 75.4829V76.7709H111.572V87.7382H98.0646V108.853H120.434V103.584H106.028V93.0462Z" fill="#231815"/>
<path d="M156.857 86.6844C157.911 87.6992 159.121 88.6749 160.448 89.6507C161.775 90.6264 163.181 91.485 164.664 92.3047C166.148 93.1243 167.709 93.9049 169.31 94.6074C170.91 95.3099 172.511 95.8954 174.19 96.4028V88.8701C172.901 88.4798 171.496 87.8943 169.974 87.1137C168.412 86.3722 166.968 85.5135 165.64 84.5378C164.313 83.6011 163.181 82.5863 162.244 81.5715C161.307 80.5177 160.878 79.542 160.878 78.6053V71.4629H149.283L149.674 72.5557C151.704 72.5947 152.953 73.4924 152.953 75.4829V78.6053C152.953 79.542 152.484 80.5568 151.586 81.5715C150.649 82.6253 149.517 83.6011 148.19 84.5378C146.863 85.4745 145.379 86.3331 143.857 87.1137C142.295 87.8943 140.89 88.4407 139.641 88.8701V96.4028C142.92 95.388 146.082 94.061 149.127 92.3437C152.172 90.6264 154.749 88.753 156.935 86.7234L156.857 86.6844Z" fill="#231815"/>
<path d="M174.619 104.481H139.094V109.789H174.619V104.481Z" fill="#231815"/>
<path d="M308.521 67.0918H298.41V119.587H308.521V67.0918Z" fill="#231815"/>
<path d="M266.906 96.6372H280.96V67.0918H250.549L251.056 68.3407C253.594 68.3798 255.194 69.3945 255.194 71.6973V74.3513H269.17V89.3777H255.194V118.299H282.287V111.078H266.906V96.5981V96.6372Z" fill="#231815"/>
<path d="M285.176 98.8228H277.173V108.541H285.176V119.547H295.287V67.0918H285.176V98.8228Z" fill="#231815"/>
<path d="M316.992 101.126H367.898V93.866H328.704V74.3122H367.898V67.0527H312.347L312.854 68.3017C315.392 68.3407 316.992 69.3555 316.992 71.6582V101.126Z" fill="#231815"/>
<path d="M368.64 112.288H316.329V119.548H368.64V112.288Z" fill="#231815"/>
<path d="M436.879 74.3903H456.516V76.8492C456.516 77.7078 456.203 78.6445 455.579 79.5812C454.954 80.518 454.134 81.4547 453.08 82.4304C452.026 83.4061 450.816 84.3428 449.489 85.2796C448.162 86.2163 446.756 87.0749 445.273 87.8945C443.789 88.6751 442.345 89.3777 440.9 90.0412C439.456 90.6656 438.129 91.173 436.879 91.5243V101.243C441.72 99.8766 446.366 98.0032 450.816 95.6614C455.306 93.3196 459.131 90.7437 462.293 87.9726C463.855 89.3386 465.612 90.7047 467.564 91.9926C469.516 93.3196 471.585 94.5296 473.81 95.6614C475.996 96.7933 478.299 97.8471 480.642 98.7838C482.984 99.7595 485.365 100.54 487.825 101.243V91.5243C485.951 90.9779 483.882 90.1582 481.578 89.0654C479.314 87.9726 477.167 86.7237 475.215 85.3576C473.224 83.9916 471.585 82.5475 470.218 81.0644C468.852 79.5812 468.188 78.1762 468.188 76.8882V74.4293H487.825V67.0918H437.973H432.234L432.741 68.3407C435.279 68.3798 436.879 69.3945 436.879 71.7363V74.4293V74.3903Z" fill="#231815"/>
<path d="M488.527 112.288H436.216V119.548H488.527V112.288Z" fill="#231815"/>
<path d="M494.266 74.2732H530.181V67.0527H495.359H489.62L490.128 68.3017C492.665 68.3407 494.266 69.3555 494.266 71.6973V74.2732Z" fill="#231815"/>
<path d="M526.746 76.8877H515.073V111.117H509.647V76.8877H498.014V111.117H493.954V118.298H530.533V111.117H526.746V76.8877Z" fill="#231815"/>
<path d="M544.859 89.1045V67.0918H533.148V119.547H544.859V99.4473H551.262V89.1045H544.859Z" fill="#231815"/>
<path d="M609 112.171H556.688V119.43H609V112.171Z" fill="#231815"/>
<path d="M557.391 71.6973V74.3122H596.586V84.616H557.391V91.8755H596.586V102.921H608.297V67.0527H552.746L553.253 68.3017C555.83 68.3407 557.391 69.3555 557.391 71.6973Z" fill="#231815"/>
<path d="M376.252 97.4961V104.756H396.591V119.548H408.225V104.756H428.564V97.4961H376.252Z" fill="#231815"/>
<path d="M378.79 71.6973C378.166 72.634 377.658 73.6487 377.307 74.7806C376.838 76.3418 376.565 77.981 376.565 79.7764C376.565 81.5717 376.799 83.289 377.307 84.8502C377.775 86.4114 378.517 87.7384 379.532 88.8702C380.547 90.0021 381.835 90.8998 383.358 91.5243C384.88 92.1878 386.715 92.5 388.823 92.5H415.916C418.024 92.5 419.859 92.1878 421.381 91.5243C422.904 90.8608 424.192 90.0021 425.207 88.8702C426.222 87.7384 426.964 86.4114 427.432 84.8502C427.901 83.289 428.174 81.6108 428.174 79.7764C428.174 77.942 427.94 76.3027 427.432 74.7806C426.964 73.2194 426.183 71.8924 425.207 70.7215C424.192 69.5897 422.904 68.692 421.342 68.0285C419.781 67.365 417.946 67.0527 415.838 67.0527H374.145L374.652 68.3017C377.229 68.3407 378.79 69.3555 378.79 71.6973ZM411.543 74.3513C413.183 74.3513 414.549 74.8196 415.564 75.7563C416.579 76.693 417.126 78.0591 417.126 79.7764C417.126 81.4937 416.618 82.7816 415.642 83.7574C414.666 84.7331 413.3 85.2405 411.543 85.2405H393.273C391.517 85.2405 390.15 84.7331 389.174 83.7574C388.198 82.7816 387.691 81.4546 387.691 79.7764C387.691 78.02 388.198 76.693 389.252 75.7563C390.267 74.8196 391.634 74.3513 393.273 74.3513H411.543Z" fill="#231815"/>
<path d="M228.336 181.409L225.213 173.681H210.339L207.294 181.409H202.297L214.946 149.21H220.567L233.294 181.409H228.297H228.336ZM217.796 154.752L212.213 169.076H223.417L217.796 154.752Z" fill="#231815"/>
<path d="M235.988 181.292V149.249H240.79V181.292H235.988Z" fill="#231815"/>
<path d="M244.459 180.395V175.867H261.441V167.983C257.264 167.632 254.102 166.461 251.993 164.471C249.846 162.48 248.792 160.177 248.792 157.523C248.792 154.44 250.159 151.903 252.93 149.913C255.702 147.922 259.489 146.907 264.291 146.907C269.092 146.907 272.879 147.922 275.651 149.913C278.422 151.903 279.789 154.44 279.789 157.523C279.789 160.06 278.735 162.363 276.588 164.392C274.441 166.422 271.278 167.632 267.062 167.983V175.828H284.122V180.356H244.498L244.459 180.395ZM271.239 153.113C269.287 152.02 266.945 151.474 264.291 151.474C261.636 151.474 259.216 152.02 257.303 153.113C255.351 154.206 254.414 155.689 254.414 157.601C254.414 159.241 255.351 160.685 257.186 161.856C259.02 163.026 261.402 163.651 264.33 163.651C267.257 163.651 269.6 163.065 271.435 161.856C273.308 160.646 274.206 159.241 274.206 157.64C274.206 155.767 273.23 154.245 271.239 153.152V153.113Z" fill="#231815"/>
<path d="M308.951 175.984C307.077 176.101 305.359 176.14 303.758 176.179C301.221 176.296 297.825 176.374 293.53 176.374H286.582V171.691H291.852L291.266 156.04H296.497L297.005 171.691C298.293 171.691 299.308 171.652 300.05 171.652C300.792 171.652 301.65 171.652 302.587 171.613L303.095 156.04H308.287L307.74 171.378C308.599 171.3 309.653 171.261 310.902 171.183C312.152 171.105 313.206 171.027 314.143 170.91V175.555C312.581 175.75 310.863 175.867 309.029 175.984H308.951ZM287.675 154.283V149.561H311.996V154.283H287.675ZM316.758 185V145.385H321.95V185H316.758Z" fill="#231815"/>
<path d="M327.298 179.965V175.437H366.922V179.965H327.298ZM344.983 162.284C343.929 163.338 342.758 164.353 341.352 165.407C339.869 166.5 338.346 167.436 336.746 168.178C335.145 168.92 333.857 169.427 332.881 169.778L329.524 166.148C330.929 165.641 332.53 164.899 334.325 164.002C336.121 163.065 337.839 161.933 339.478 160.528C341.04 159.201 342.211 157.679 342.992 155.923C343.773 154.166 344.163 152.371 344.163 150.537V147.609H350.097V150.537C350.097 152.41 350.487 154.205 351.268 155.923C352.049 157.679 353.22 159.201 354.781 160.528C356.46 161.894 358.178 163.065 359.974 164.002C361.73 164.938 363.331 165.641 364.736 166.148L361.379 169.778C360.403 169.466 359.154 168.92 357.514 168.178C355.914 167.436 354.352 166.539 352.908 165.407C351.541 164.353 350.331 163.299 349.316 162.284C348.301 161.231 347.598 160.255 347.13 159.318C346.74 160.255 346.037 161.231 344.983 162.284Z" fill="#231815"/>
<path d="M385.388 165.212C383.982 165.329 382.655 165.407 381.367 165.485C379.025 165.602 376.799 165.68 374.652 165.68H371.217V147.531H386.286V151.708H376.409V154.557H385.817V158.577H376.409V161.465H381.289C382.46 161.348 383.787 161.27 385.271 161.192C386.754 161.114 387.964 160.997 388.901 160.879V164.9C387.964 165.017 386.793 165.134 385.427 165.251L385.388 165.212ZM376.136 184.531V174.267H399.52V171.964H376.136V167.866H405.258V178.092H381.991V180.394H406.273V184.531H376.136ZM391.907 166.305V157.952H387.223V153.542H391.907V146.087H396.865V166.344H391.907V166.305ZM400.379 166.305V145.385H405.414V166.305H400.379Z" fill="#231815"/>
</g>
<defs>
<clipPath id="clip0_3091_834">
<rect width="609" height="185" fill="white"/>
</clipPath>
</defs>
</svg>
