<svg width="353" height="200" viewBox="0 0 353 200" fill="none" xmlns="http://www.w3.org/2000/svg">
<g clip-path="url(#clip0_3078_944)">
<circle cx="176.5" cy="-44.5" r="176.5" fill="#074A4C"/>
<g clip-path="url(#clip1_3078_944)">
<path d="M178.326 27V29.2478H174.632V27H173.561V32.7434H174.632V30.4292H178.326V32.7434H179.401V27H178.326Z" fill="white"/>
<path d="M186.053 27H180.044V28.1858H186.053V27Z" fill="white"/>
<path d="M186.053 29.2388H180.044V30.4246H186.053V29.2388Z" fill="white"/>
<path d="M186.053 31.562H180.044V32.7479H186.053V31.562Z" fill="white"/>
<path d="M173.047 27H167.018V28.1858H169.494V32.7434H170.57V28.1858H173.047V27Z" fill="white"/>
<path d="M138.957 35.3496H137.725L137.833 35.677C138.383 35.6903 138.724 35.9558 138.724 36.5576V37.3673H142.923V45.1062H144.75V37.3673H148.949V35.3496H138.961H138.957Z" fill="white"/>
<path d="M150.646 35.3496H149.414L149.522 35.677C150.072 35.6903 150.414 35.9558 150.414 36.5576V37.3629H160.634V35.3496H150.646Z" fill="white"/>
<path d="M160.635 39.1592H150.414V41.1725H160.635V39.1592Z" fill="white"/>
<path d="M160.635 43.1064H150.414V45.1197H160.635V43.1064Z" fill="white"/>
<path d="M170.08 35.3496H162.32H161.088L161.196 35.6771C161.746 35.6903 162.087 35.9558 162.087 36.5576V37.3806L167.033 37.3718H169.747V39.2036H162.087V45.1151H163.918V41.2257H166.997L169.462 45.1151H171.573L169.109 41.2257H171.573V35.3452H170.08V35.3496Z" fill="white"/>
<path d="M181.012 35.3496H173.252H172.02L172.128 35.6771C172.678 35.6903 173.019 35.9558 173.019 36.5576V37.3806L177.965 37.3718H180.678V39.2036H173.019V45.1151H174.85V41.2257H177.929L180.393 45.1151H182.505L180.04 41.2257H182.505V35.3452H181.012V35.3496Z" fill="white"/>
<path d="M191.882 35.3496H183.042L183.15 35.6771C183.7 35.6903 184.042 35.9558 184.042 36.5576V45.1151H185.872V41.0753H191.817V45.1151H193.648V35.3452H191.886L191.882 35.3496ZM191.817 38.6682V39.1063H185.872V37.3231H191.817V38.6682Z" fill="white"/>
<path d="M204.703 37.3408V35.3496H194.286L194.395 35.677C194.944 35.6903 195.286 35.9558 195.286 36.5576V45.1151H204.703V43.1239H197.112V37.3408H204.703Z" fill="white"/>
<path d="M206.117 35.3496H205.117L205.226 35.677C205.776 35.6903 206.117 35.9558 206.117 36.5576V37.3629H216.337V35.3496H206.117Z" fill="white"/>
<path d="M216.338 39.1592H206.117V41.1725H216.338V39.1592Z" fill="white"/>
<path d="M216.338 43.1064H206.117V45.1197H216.338V43.1064Z" fill="white"/>
<path d="M146.352 61.0265L152.048 61.0044V62.1548C152.048 62.1548 150.892 61.8805 150.936 63.0354C150.976 64.1858 152.839 68.0354 152.839 68.0354C153.007 68.0663 152.839 68.2743 153.67 66.3009C154.661 63.938 154.898 63.323 154.846 63.2345C154.846 63.2345 155.115 62.3938 154.537 62.2035H153.658V61.0221H157.668V62.1902C157.668 62.1902 156.693 62.177 156.307 62.8849C155.922 63.5973 151.771 74.4424 151.771 74.4424C151.771 74.4424 150.864 76.0486 149.764 76.5177C148.941 76.8672 147.937 76.6548 147.937 76.6548V74.5796L149.479 74.5708C149.563 74.5708 149.647 74.5575 149.728 74.5309C149.985 74.4336 150.486 74.1106 150.856 73.0265C151.402 71.4292 151.245 71.115 150.735 69.9778C150.225 68.8407 147.849 63.146 147.849 63.146C147.849 63.146 147.616 62.3584 146.625 62.1327L146.312 62.1548L146.34 61.0354L146.352 61.0265Z" fill="white"/>
<path d="M144.983 63.2741C144.288 62.6679 143.353 61.9777 141.787 62.0971C140.222 62.2166 139.684 62.8228 139.563 62.991C139.439 63.1591 139.563 57.2432 139.563 57.2432H135.36V58.3848C135.36 58.3848 136.171 58.2033 136.376 58.9157C136.581 59.6281 136.376 72.6547 136.376 72.6547H137.612C137.612 72.6547 138.207 71.5131 138.628 71.4113C139.041 71.314 140.471 73.5219 142.638 72.9865C144.81 72.4511 145.978 71.6635 146.484 68.6237C147.11 64.8715 144.983 63.2741 144.983 63.2741ZM143.702 68.7786C143.389 71.6148 142.056 71.8936 142.108 71.8582C142.193 71.8007 140.178 72.2786 139.599 69.898C139.599 69.898 139.218 68.1547 139.599 65.2918C139.897 63.0883 142.883 62.4334 143.538 64.929C143.803 65.9379 143.911 66.8848 143.702 68.7741V68.7786Z" fill="white"/>
<path d="M71.2713 59.3759H76.4096V57.2476H68.3488H67L67.1485 57.69C67.8912 57.7077 68.3488 58.0661 68.3488 58.8803V72.3847H76.5622V70.2564H71.2672V59.3759H71.2713Z" fill="white"/>
<path d="M78.5578 57.2476V63.2033H75.7236V66.2564H78.5578V72.752H81.4802V57.2476H78.5578Z" fill="white"/>
<path d="M100.68 57.2476H98.1553V72.7564H100.68V57.2476Z" fill="white"/>
<path d="M90.0624 63.0751H93.9644V60.9468H87.3809V72.3848H94.1169V70.2565H90.0624V63.0751Z" fill="white"/>
<path d="M87.381 59.3759H93.9646V57.2476H86.0322L86.1808 57.69C86.9234 57.7077 87.381 58.0661 87.381 58.8803V59.3803V59.3759Z" fill="white"/>
<path d="M94.8554 65.0573H92.8643V68.1104H94.8554V72.752H97.3844V57.2476H94.8554V65.0573Z" fill="white"/>
<path d="M115.473 63.7608V57.2476H112.551V72.752H115.473V66.8139H117.071V63.7608H115.473Z" fill="white"/>
<path d="M105.951 65.9821H110.917V57.2476H101.68L101.828 57.69C102.571 57.7077 103.029 58.0661 103.029 58.8759V59.3936H107.994V63.8361H103.029V72.3847H111.242V70.2564H105.947V65.9821H105.951Z" fill="white"/>
<path d="M124.618 63.4068C125.007 63.8139 125.445 64.2122 125.935 64.6015C126.42 64.9909 126.938 65.3493 127.488 65.6856C128.038 66.0175 128.604 66.3272 129.19 66.6104C129.776 66.8936 130.37 67.1325 130.977 67.3316V64.2785C130.507 64.1192 129.989 63.8847 129.423 63.575C128.857 63.2653 128.327 62.9201 127.833 62.5396C127.34 62.1591 126.926 61.7564 126.589 61.3361C126.252 60.9157 126.083 60.5175 126.083 60.1325V57.2476H121.828L121.976 57.69C122.719 57.7077 123.177 58.0617 123.177 58.8759V60.1369C123.177 60.5175 123.008 60.9201 122.671 61.3405C122.334 61.7608 121.916 62.1591 121.426 62.544C120.933 62.9245 120.403 63.2741 119.829 63.5794C119.255 63.8891 118.741 64.1237 118.283 64.283V67.3361C119.488 66.929 120.648 66.3803 121.764 65.69C122.88 64.9998 123.835 64.2387 124.626 63.4157L124.618 63.4068Z" fill="white"/>
<path d="M131.145 70.606H118.103V72.752H131.145V70.606Z" fill="white"/>
<path d="M180.341 55.46H176.62V76.7166H180.341V55.46Z" fill="white"/>
<path d="M165.054 67.429H170.217V55.4556H159.045L159.23 55.9644C160.169 55.9865 160.747 56.3936 160.747 57.3272V58.398H165.885V64.4865H160.747V76.2034H170.695V73.2874H165.05V67.429H165.054Z" fill="white"/>
<path d="M171.763 68.3184H168.824V72.252H171.763V76.7122H175.484V55.46H171.763V68.3184Z" fill="white"/>
<path d="M183.456 69.2564H202.163V66.3139H187.759V58.4024H202.163V55.46H181.754L181.939 55.9688C182.874 55.9909 183.456 56.398 183.456 57.3316V69.2608V69.2564Z" fill="white"/>
<path d="M202.416 73.7739H183.203V76.7164H202.416V73.7739Z" fill="white"/>
<path d="M227.497 58.4289H234.711V59.4201C234.711 59.7741 234.598 60.1413 234.37 60.5219C234.141 60.9024 233.836 61.2873 233.446 61.6767C233.057 62.0661 232.619 62.4511 232.13 62.8316C231.64 63.2121 231.126 63.5617 230.584 63.8847C230.042 64.2077 229.508 64.4953 228.978 64.7475C228.449 64.9997 227.955 65.2033 227.497 65.3581V69.2918C229.267 68.7342 230.978 67.982 232.623 67.0351C234.269 66.0882 235.674 65.0484 236.838 63.9157C237.413 64.4732 238.059 65.0174 238.773 65.5528C239.492 66.0838 240.255 66.5794 241.066 67.0351C241.876 67.4909 242.711 67.9157 243.571 68.305C244.43 68.6944 245.309 69.0218 246.204 69.2962V65.3626C245.513 65.1413 244.747 64.8095 243.912 64.3626C243.077 63.9157 242.294 63.4112 241.571 62.8537C240.845 62.2962 240.235 61.7165 239.737 61.1148C239.239 60.513 238.99 59.9511 238.99 59.4289V58.4378H246.204V55.4688H227.895H225.791L225.976 55.9776C226.915 55.9997 227.493 56.4068 227.493 57.3449V58.4378L227.497 58.4289Z" fill="white"/>
<path d="M246.457 73.7739H227.244V76.7164H246.457V73.7739Z" fill="white"/>
<path d="M248.581 58.3759H261.768V55.46H248.979H246.875L247.06 55.9688C247.999 55.9909 248.577 56.398 248.577 57.3361V58.3759H248.581Z" fill="white"/>
<path d="M260.5 59.4424H256.225V73.2919H254.226V59.4424H249.946V73.2919H248.453V76.2079H261.893V73.2919H260.5V59.4424Z" fill="white"/>
<path d="M267.16 64.3892V55.46H262.856V76.7122H267.16V68.5706H269.512V64.3892H267.16Z" fill="white"/>
<path d="M290.723 73.73H271.511V76.6636H290.723V73.73Z" fill="white"/>
<path d="M271.764 57.3361V58.3936H286.167V62.5706H271.764V65.5042H286.167V69.9821H290.471V55.4556H270.058L270.242 55.9644C271.182 55.9865 271.76 56.3936 271.76 57.3317L271.764 57.3361Z" fill="white"/>
<path d="M205.222 67.7876V70.7301H212.688V76.7124H216.968V70.7301H224.434V67.7876H205.222Z" fill="white"/>
<path d="M206.157 57.3361C205.924 57.7077 205.74 58.1237 205.611 58.5794C205.435 59.2033 205.346 59.8803 205.346 60.606C205.346 61.3316 205.435 62.0352 205.611 62.6591C205.788 63.283 206.061 63.8272 206.434 64.283C206.804 64.7387 207.273 65.0971 207.839 65.3626C208.405 65.6237 209.076 65.7564 209.85 65.7564H219.798C220.573 65.7564 221.243 65.6237 221.809 65.3626C222.375 65.1016 222.841 64.7431 223.214 64.283C223.584 63.8272 223.86 63.2874 224.037 62.6591C224.214 62.0352 224.302 61.3493 224.302 60.606C224.302 59.8626 224.214 59.2033 224.037 58.5794C223.86 57.9555 223.584 57.4069 223.214 56.9423C222.841 56.4777 222.371 56.1148 221.797 55.8538C221.223 55.5927 220.549 55.46 219.774 55.46H204.451L204.636 55.9688C205.575 55.9909 206.153 56.398 206.153 57.3361H206.157ZM218.18 58.4024C218.786 58.4024 219.28 58.5927 219.662 58.9732C220.043 59.3538 220.232 59.898 220.232 60.6104C220.232 61.3228 220.051 61.8228 219.686 62.221C219.324 62.6193 218.823 62.8184 218.18 62.8184H211.472C210.83 62.8184 210.328 62.6193 209.967 62.221C209.606 61.8228 209.421 61.2874 209.421 60.6104C209.421 59.9024 209.61 59.3538 209.991 58.9732C210.372 58.5927 210.866 58.4024 211.472 58.4024H218.18Z" fill="white"/>
</g>
<line x1="177.5" y1="132" x2="177.5" y2="200" stroke="#074A4C"/>
</g>
<defs>
<clipPath id="clip0_3078_944">
<rect width="353" height="200" fill="white"/>
</clipPath>
<clipPath id="clip1_3078_944">
<rect width="224" height="50" fill="white" transform="translate(67 27)"/>
</clipPath>
</defs>
</svg>
