<svg width="705" height="150" viewBox="0 0 705 150" fill="none" xmlns="http://www.w3.org/2000/svg">
<path d="M362.592 1.28613V19.429H329.668V1.28613H320.113V47.6433H329.668V28.9647H362.592V47.6433H372.183V1.28613H362.592Z" fill="white" fill-opacity="0.1"/>
<path d="M431.482 1.28613H377.909V10.8576H431.482V1.28613Z" fill="white" fill-opacity="0.1"/>
<path d="M431.482 19.3574H377.909V28.9289H431.482V19.3574Z" fill="white" fill-opacity="0.1"/>
<path d="M431.482 38.1074H377.909V47.6788H431.482V38.1074Z" fill="white" fill-opacity="0.1"/>
<path d="M315.532 1.28613H261.78V10.8576H283.861V47.6433H293.452V10.8576H315.532V1.28613Z" fill="white" fill-opacity="0.1"/>
<path d="M11.6306 68.6787H0.644043L1.6103 71.3216C6.51309 71.4287 9.55498 73.5716 9.55498 78.4287V84.9644H46.988V147.429H63.2709V84.9644H100.704V68.6787H11.6664H11.6306Z" fill="white" fill-opacity="0.1"/>
<path d="M115.842 68.6787H104.855L105.821 71.3216C110.724 71.4287 113.766 73.5716 113.766 78.4287V84.9287H204.879V68.6787H115.842Z" fill="white" fill-opacity="0.1"/>
<path d="M204.879 99.4287H113.766V115.679H204.879V99.4287Z" fill="white" fill-opacity="0.1"/>
<path d="M204.879 131.286H113.766V147.536H204.879V131.286Z" fill="white" fill-opacity="0.1"/>
<path d="M289.086 68.6793H219.91H208.923L209.89 71.3221C214.792 71.4293 217.834 73.5721 217.834 78.4293V85.0721L261.924 85.0007H286.115V99.7864H217.834V147.501H234.153V116.108H261.602L283.575 147.501H302.398L280.425 116.108H302.398V68.6436H289.086V68.6793Z" fill="white" fill-opacity="0.1"/>
<path d="M386.533 68.6793H317.357H306.371L307.337 71.3221C312.24 71.4293 315.282 73.5721 315.282 78.4293V85.0721L359.371 85.0007H383.563V99.7864H315.282V147.501H331.6V116.108H359.049L381.022 147.501H399.846L377.873 116.108H399.846V68.6436H386.533V68.6793Z" fill="white" fill-opacity="0.1"/>
<path d="M483.444 68.6793H404.641L405.608 71.3221C410.51 71.4293 413.552 73.5721 413.552 78.4293V147.501H429.871V114.894H482.871V147.501H499.19V68.6436H483.48L483.444 68.6793ZM482.871 95.465V99.0007H429.871V84.6078H482.871V95.465Z" fill="white" fill-opacity="0.1"/>
<path d="M597.747 84.7501V68.6787H504.88L505.846 71.3216C510.749 71.4287 513.791 73.5716 513.791 78.4287V147.5H597.747V131.429H530.074V84.7501H597.747Z" fill="white" fill-opacity="0.1"/>
<path d="M610.344 68.6787H601.433L602.399 71.3216C607.302 71.4287 610.344 73.5716 610.344 78.4287V84.9287H701.457V68.6787H610.344Z" fill="white" fill-opacity="0.1"/>
<path d="M701.457 99.4287H610.344V115.679H701.457V99.4287Z" fill="white" fill-opacity="0.1"/>
<path d="M701.457 131.286H610.344V147.536H701.457V131.286Z" fill="white" fill-opacity="0.1"/>
</svg>
