<svg width="40" height="40" viewBox="0 0 40 40" fill="none" xmlns="http://www.w3.org/2000/svg">
<g clip-path="url(#clip0_3159_834)">
<path fill-rule="evenodd" clip-rule="evenodd" d="M2.73256 19.5449V36.8511H20.0388V19.5449H16.8508C16.4884 19.5449 16.1409 19.401 15.8847 19.1447C15.6284 18.8885 15.4845 18.541 15.4845 18.1786C15.4845 17.8163 15.6284 17.4687 15.8847 17.2125C16.1409 16.9563 16.4884 16.8123 16.8508 16.8123H20.4942C21.7512 16.8123 22.7713 17.8325 22.7713 19.0895V38.2174C22.7713 38.5797 22.6274 38.9273 22.3711 39.1835C22.1149 39.4397 21.7674 39.5837 21.405 39.5837H2.27713C1.02016 39.5837 0 38.5635 0 37.3065V19.0895C0.000963509 18.4858 0.241184 17.9072 0.668021 17.4804C1.09486 17.0535 1.67349 16.8133 2.27713 16.8123H10.4748C10.8372 16.8123 11.1847 16.9563 11.4409 17.2125C11.6971 17.4687 11.8411 17.8163 11.8411 18.1786C11.8411 18.541 11.6971 18.8885 11.4409 19.1447C11.1847 19.401 10.8372 19.5449 10.4748 19.5449H2.73256ZM22.7713 8.15924C22.7713 8.5216 22.6274 8.86912 22.3711 9.12535C22.1149 9.38157 21.7674 9.52552 21.405 9.52552C21.0427 9.52552 20.6952 9.38157 20.4389 9.12535C20.1827 8.86912 20.0388 8.5216 20.0388 8.15924V1.78327C20.0388 1.42091 20.1827 1.07339 20.4389 0.817166C20.6952 0.560939 21.0427 0.416992 21.405 0.416992C21.7674 0.416992 22.1149 0.560939 22.3711 0.817166C22.6274 1.07339 22.7713 1.42091 22.7713 1.78327V8.15924ZM37.8004 13.1689C38.1627 13.1689 38.5103 13.3129 38.7665 13.5691C39.0227 13.8253 39.1667 14.1728 39.1667 14.5352C39.1667 14.8976 39.0227 15.2451 38.7665 15.5013C38.5103 15.7575 38.1627 15.9015 37.8004 15.9015H31.4244C31.0621 15.9015 30.7145 15.7575 30.4583 15.5013C30.2021 15.2451 30.0581 14.8976 30.0581 14.5352C30.0581 14.1728 30.2021 13.8253 30.4583 13.5691C30.7145 13.3129 31.0621 13.1689 31.4244 13.1689H37.8004ZM24.593 20.9112C24.593 20.5488 24.737 20.2013 24.9932 19.9451C25.2494 19.6888 25.5969 19.5449 25.9593 19.5449C26.3217 19.5449 26.6692 19.6888 26.9254 19.9451C27.1816 20.2013 27.3256 20.5488 27.3256 20.9112V22.7329C27.3256 23.0952 27.1816 23.4428 26.9254 23.699C26.6692 23.9552 26.3217 24.0992 25.9593 24.0992C25.5969 24.0992 25.2494 23.9552 24.9932 23.699C24.737 23.4428 24.593 23.0952 24.593 22.7329V20.9112Z" fill="black"/>
<path fill-rule="evenodd" clip-rule="evenodd" d="M9.56375 35.029C9.20139 35.029 8.85387 34.885 8.59764 34.6288C8.34141 34.3726 8.19747 34.0251 8.19747 33.6627C8.19747 33.3004 8.34141 32.9528 8.59764 32.6966C8.85387 32.4404 9.20139 32.2964 9.56375 32.2964H11.3855C11.7478 32.2964 12.0953 32.4404 12.3516 32.6966C12.6078 32.9528 12.7517 33.3004 12.7517 33.6627C12.7517 34.0251 12.6078 34.3726 12.3516 34.6288C12.0953 34.885 11.7478 35.029 11.3855 35.029H9.56375ZM3.6432 11.8022C3.6432 12.1646 3.49926 12.5121 3.24303 12.7683C2.9868 13.0246 2.63928 13.1685 2.27692 13.1685C1.91456 13.1685 1.56705 13.0246 1.31082 12.7683C1.05459 12.5121 0.910645 12.1646 0.910645 11.8022V9.98054C0.910645 9.61818 1.05459 9.27066 1.31082 9.01443C1.56705 8.7582 1.91456 8.61426 2.27692 8.61426C2.63928 8.61426 2.9868 8.7582 3.24303 9.01443C3.49926 9.27066 3.6432 9.61818 3.6432 9.98054V11.8022ZM35.5231 29.1084V36.3953C35.5231 37.2405 35.1879 38.0512 34.5885 38.6487C34.2929 38.9451 33.9417 39.1803 33.555 39.3406C33.1683 39.501 32.7537 39.5834 32.3351 39.5833H21.4048C21.0425 39.5833 20.695 39.4393 20.4387 39.1831C20.1825 38.9269 20.0386 38.5793 20.0386 38.217V29.1084C20.0386 28.7461 20.1825 28.3986 20.4387 28.1423C20.695 27.8861 21.0425 27.7422 21.4048 27.7422H34.1568C34.5191 27.7422 34.8667 27.8861 35.1229 28.1423C35.3791 28.3986 35.5231 28.7461 35.5231 29.1084ZM32.7905 30.4747H22.7711V36.8507H32.3351C32.4559 36.8507 32.5717 36.8027 32.6571 36.7173C32.7425 36.6319 32.7905 36.5161 32.7905 36.3953V30.4747Z" fill="black"/>
<path fill-rule="evenodd" clip-rule="evenodd" d="M36.4343 27.7426V3.14955H8.19789V18.1786C8.19789 18.541 8.05394 18.8885 7.79772 19.1447C7.54149 19.401 7.19397 19.5449 6.83161 19.5449C6.46925 19.5449 6.12173 19.401 5.86551 19.1447C5.60928 18.8885 5.46533 18.541 5.46533 18.1786V2.69412C5.46533 1.43715 6.48549 0.416992 7.74246 0.416992H36.8898C38.1467 0.416992 39.1669 1.43715 39.1669 2.69412V28.198C39.1669 29.455 38.1467 30.4751 36.8898 30.4751H21.4053C21.0429 30.4751 20.6954 30.3312 20.4392 30.075C20.1829 29.8187 20.039 29.4712 20.039 29.1089C20.039 28.7465 20.1829 28.399 20.4392 28.1427C20.6954 27.8865 21.0429 27.7426 21.4053 27.7426H36.4343ZM34.1572 32.2968C34.5196 32.2968 34.8671 32.4408 35.1233 32.697C35.3795 32.9532 35.5235 33.3008 35.5235 33.6631C35.5235 34.0255 35.3795 34.373 35.1233 34.6292C34.8671 34.8855 34.5196 35.0294 34.1572 35.0294H21.4053C21.0429 35.0294 20.6954 34.8855 20.4392 34.6292C20.1829 34.373 20.039 34.0255 20.039 33.6631C20.039 33.3008 20.1829 32.9532 20.4392 32.697C20.6954 32.4408 21.0429 32.2968 21.4053 32.2968H34.1572Z" fill="black"/>
</g>
<defs>
<clipPath id="clip0_3159_834">
<rect width="40" height="40" fill="white"/>
</clipPath>
</defs>
</svg>
