<svg width="40" height="40" viewBox="0 0 40 40" fill="none" xmlns="http://www.w3.org/2000/svg">
<g clip-path="url(#clip0_3142_917)">
<path d="M38.1818 0H1.81865C0.814539 0 0.000488281 0.814051 0.000488281 1.81816V38.1818C0.000488281 39.1859 0.814539 40 1.81865 40H22.4245C23.4286 40 24.2426 39.1859 24.2426 38.1818C24.2426 37.1777 23.4286 36.3637 22.4245 36.3637H3.63681V20.6063H12.1216V27.2724C12.1216 28.2765 12.9356 29.0906 13.9397 29.0906C14.9438 29.0906 15.7579 28.2765 15.7579 27.2724V10.3029C15.7579 9.2988 14.9438 8.48475 13.9397 8.48475C12.9356 8.48475 12.1216 9.2988 12.1216 10.3029V16.97H3.63681V3.63632H21.8184V12.7276C21.8184 13.7317 22.6325 14.5458 23.6366 14.5458H32.1213C33.1254 14.5458 33.9395 13.7317 33.9395 12.7276C33.9395 11.7235 33.1254 10.9094 32.1213 10.9094H25.4547V3.63632H36.3637V25.4547H23.6366C22.6325 25.4547 21.8184 26.2688 21.8184 27.2729C21.8184 28.277 22.6325 29.091 23.6366 29.091H36.3637V36.3637H33.3334C32.3293 36.3637 31.5153 37.1777 31.5153 38.1818C31.5153 39.1859 32.3293 40 33.3334 40H38.1818C39.186 40 40 39.1859 40 38.1818V1.81816C40 0.814051 39.186 0 38.1818 0Z" fill="black"/>
</g>
<defs>
<clipPath id="clip0_3142_917">
<rect width="40" height="40" fill="white"/>
</clipPath>
</defs>
</svg>
