<svg width="40" height="40" viewBox="0 0 40 40" fill="none" xmlns="http://www.w3.org/2000/svg">
<g clip-path="url(#clip0_3167_834)">
<path d="M2 35.7602V14.07C2 12.8324 3.00322 11.8292 4.24082 11.8292H6.48164V33.5194H4.24082C3.00322 33.5194 2 34.5227 2 35.7602ZM2 35.7602C2 36.9978 3.00322 38.001 4.24082 38.001H35.7592C36.9968 38.001 38 36.9978 38 35.7602M38 35.7602V14.07C38 12.8324 36.9968 11.8292 35.7592 11.8292H33.5184V33.5194H35.7592C36.9968 33.5194 38 34.5227 38 35.7602ZM6.48164 14.07H17.7592M22.2408 14.07H33.5184M17.7592 16.3108H22.2408M17.7592 6.03418H22.2408" stroke="black" stroke-width="3" stroke-miterlimit="10" stroke-linejoin="round"/>
<path d="M19.9999 28.1591C21.1732 28.1591 22.1244 27.2079 22.1244 26.0346C22.1244 24.8613 21.1732 23.9102 19.9999 23.9102C18.8266 23.9102 17.8755 24.8613 17.8755 26.0346C17.8755 27.2079 18.8266 28.1591 19.9999 28.1591Z" stroke="black" stroke-width="3" stroke-miterlimit="10" stroke-linejoin="round"/>
<path d="M18.1803 19.3525L17.9288 20.0418C17.1647 20.3062 16.4583 20.7146 15.8478 21.2448L14.1872 20.9533L12.6934 23.5407L13.7749 24.8317C13.7001 25.2212 13.6595 25.6229 13.6595 26.0342C13.6595 26.4455 13.7001 26.8472 13.7749 27.2367L12.6934 28.5277L14.1872 31.1151L15.8478 30.8236C16.4582 31.3539 17.1646 31.7622 17.9287 32.0266L18.5059 33.6085H21.4937L22.0708 32.0266C22.8349 31.7622 23.5413 31.3538 24.1518 30.8236L25.8124 31.1151L27.3062 28.5277L26.2247 27.2367C26.2995 26.8472 26.3401 26.4455 26.3401 26.0342C26.3401 25.6229 26.2995 25.2212 26.2247 24.8317L27.3062 23.5407L25.8124 20.9533L24.1517 21.2448C23.5413 20.7145 22.8349 20.3062 22.0708 20.0418L21.8193 19.3525" stroke="black" stroke-width="3" stroke-miterlimit="10" stroke-linejoin="round"/>
<path d="M22.2404 18.9263V4.24082C22.2404 3.00322 21.2372 2 19.9996 2C18.762 2 17.7588 3.00322 17.7588 4.24082V18.9263L19.9996 21.195L22.2404 18.9263Z" stroke="black" stroke-width="3" stroke-miterlimit="10" stroke-linejoin="round"/>
</g>
<defs>
<clipPath id="clip0_3167_834">
<rect width="40" height="40" fill="white"/>
</clipPath>
</defs>
</svg>
