<svg width="40" height="40" viewBox="0 0 40 40" fill="none" xmlns="http://www.w3.org/2000/svg">
<g clip-path="url(#clip0_3142_938)">
<path d="M9.41177 11.1766V6.4707H5.88235C2.63882 6.4707 0 9.10953 0 12.3531V34.706C0 37.3008 2.11106 39.4119 4.70588 39.4119H40V11.1766H9.41177ZM2.35294 12.3531C2.35294 10.4069 3.93624 8.82364 5.88235 8.82364H7.05882V30.0001C5.30682 30.1005 3.97812 29.6896 2.35294 30.6316V12.3531ZM37.6471 37.0589H4.70588C3.40847 37.0589 2.35294 36.0034 2.35294 34.706C2.35294 33.4086 3.40847 32.3531 4.70588 32.3531H9.41177V13.5295H37.6471V37.0589Z" fill="black"/>
<path d="M15.2941 7.64672H34.4738L39.7679 4.1173L34.4738 0.587891H15.2941C13.3479 0.587891 11.7646 2.17118 11.7646 4.1173C11.7646 6.06342 13.3479 7.64672 15.2941 7.64672ZM18.8235 5.29377V2.94083H29.9877V5.29377H18.8235ZM35.5261 4.1173L33.7614 5.29377H32.3406V2.94083H33.7614L35.5261 4.1173ZM15.2941 2.94083H16.4705V5.29377H15.2941C14.6454 5.29377 14.1176 4.76601 14.1176 4.1173C14.1176 3.4686 14.6454 2.94083 15.2941 2.94083ZM11.7646 17.0585H35.2941V19.4114H11.7646V17.0585ZM11.7646 21.7644H30.5882V24.1173H11.7646V21.7644ZM11.7646 26.4702H35.2941V28.8232H11.7646V26.4702ZM11.7646 31.1761H30.5882V33.5291H11.7646V31.1761Z" fill="black"/>
</g>
<defs>
<clipPath id="clip0_3142_938">
<rect width="40" height="40" fill="white"/>
</clipPath>
</defs>
</svg>
