<svg width="40" height="40" viewBox="0 0 40 40" fill="none" xmlns="http://www.w3.org/2000/svg">
<g clip-path="url(#clip0_3167_839)">
<path d="M29.1527 31.8983C29.1527 35.2682 26.4209 38 23.051 38H16.9494C13.5795 38 10.8477 35.2682 10.8477 31.8983V5.05085C10.8477 3.36594 12.2136 2 13.8985 2H26.1019C27.7868 2 29.1527 3.36594 29.1527 5.05085V31.8983Z" stroke="black" stroke-width="3" stroke-miterlimit="10" stroke-linecap="round" stroke-linejoin="round"/>
<path d="M23.0508 2V5.05085C23.0508 6.73575 24.4168 8.10169 26.1017 8.10169H29.1525M10.8475 8.10169H13.8983C15.5832 8.10169 16.9492 6.73575 16.9492 5.05085V2M7.79661 20.3051L10.8475 17.2542C10.8475 17.2542 13.8983 14.2034 20 14.2034C26.1017 14.2034 29.1525 17.2542 29.1525 17.2542L32.2034 20.3051M2 38V2M38 2V38M10.8475 25.7966C10.8475 27.4815 12.2134 28.8475 13.8983 28.8475H26.1017C27.7866 28.8475 29.1525 27.4815 29.1525 25.7966" stroke="black" stroke-width="3" stroke-miterlimit="10" stroke-linecap="round" stroke-linejoin="round"/>
</g>
<defs>
<clipPath id="clip0_3167_839">
<rect width="40" height="40" fill="white"/>
</clipPath>
</defs>
</svg>
