<svg width="40" height="40" viewBox="0 0 40 40" fill="none" xmlns="http://www.w3.org/2000/svg">
<g clip-path="url(#clip0_3142_920)">
<path d="M16.141 5.10898C15.6836 4.65117 14.9414 4.65117 14.484 5.10898L5.10898 14.484C4.65117 14.9414 4.65117 15.6833 5.10898 16.141C5.56641 16.5988 6.30828 16.5988 6.76602 16.141L7.10938 15.798V24.6875C7.10938 25.3348 7.63398 25.8594 8.28125 25.8594H22.3438C22.991 25.8594 23.5156 25.3348 23.5156 24.6875V15.798L23.859 16.141C24.3164 16.5988 25.0586 16.5988 25.516 16.141C25.9738 15.6836 25.9738 14.9417 25.516 14.484L16.141 5.10898ZM16.4844 23.5156H14.1406V18.8281H16.4844V23.5156ZM21.1719 13.5547V23.5156H18.8281V17.6562C18.8281 17.009 18.3035 16.4844 17.6562 16.4844H12.9688C12.3215 16.4844 11.7969 17.009 11.7969 17.6562V23.5156H9.45313V13.5547C9.45313 13.5223 9.45102 13.4906 9.4482 13.4588L15.3125 7.59492L21.1768 13.4588C21.174 13.4906 21.1719 13.5223 21.1719 13.5547Z" fill="black"/>
<path d="M16.4844 12.9688C16.4844 13.616 15.9598 14.1406 15.3125 14.1406C14.6652 14.1406 14.1406 13.616 14.1406 12.9688C14.1406 12.3215 14.6652 11.7969 15.3125 11.7969C15.9598 11.7969 16.4844 12.3215 16.4844 12.9688ZM23.1723 28.5465C22.7148 28.0887 21.9727 28.0887 21.5152 28.5465C21.0574 29.0039 21.0574 29.7458 21.5152 30.2035L21.8582 30.5469H8.7668L9.10977 30.2035C9.56758 29.7458 9.56758 29.0039 9.10977 28.5465C8.65234 28.0887 7.91016 28.0887 7.45273 28.5465L5.10898 30.8902C4.65117 31.3477 4.65117 32.0895 5.10898 32.5473L7.45273 34.891C7.91016 35.3488 8.65203 35.3488 9.10977 34.891C9.56758 34.4333 9.56758 33.6914 9.10977 33.234L8.7668 32.8906H21.8582L21.5152 33.234C21.0574 33.6914 21.0574 34.4333 21.5152 34.891C21.9727 35.3488 22.7148 35.3488 23.1723 34.891L25.516 32.5473C25.9738 32.0895 25.9738 31.3477 25.516 30.8902L23.1723 28.5465ZM33.234 9.10977C33.6914 9.56758 34.4336 9.56758 34.891 9.10977C35.3488 8.65234 35.3488 7.91047 34.891 7.45273L32.5473 5.10898C32.0898 4.65117 31.348 4.65117 30.8902 5.10898L28.5465 7.45273C28.0887 7.91047 28.0887 8.65234 28.5465 9.10977C29.0039 9.56758 29.7461 9.56758 30.2035 9.10977L30.5469 8.7668V21.8582L30.2035 21.5152C29.7461 21.0574 29.0042 21.0574 28.5465 21.5152C28.0887 21.9727 28.0887 22.7145 28.5465 23.1723L30.8902 25.516C31.3477 25.9738 32.0898 25.9738 32.5473 25.516L34.891 23.1723C35.3488 22.7145 35.3488 21.9727 34.891 21.5152C34.4336 21.0574 33.6917 21.0574 33.234 21.5152L32.8906 21.8582V8.7668L33.234 9.10977Z" fill="black"/>
<path d="M1.17188 40H38.8281C39.4754 40 40 39.4754 40 38.8281V1.17188C40 0.524609 39.4754 0 38.8281 0H1.17188C0.524609 0 0 0.524609 0 1.17188V38.8281C0 39.4754 0.524609 40 1.17188 40ZM2.34375 2.34375H37.6562V37.6562H2.34375V2.34375Z" fill="black"/>
<path d="M34.0625 30.5469H29.375C28.7277 30.5469 28.2031 31.0715 28.2031 31.7188C28.2031 32.366 28.7277 32.8906 29.375 32.8906H34.0625C34.7098 32.8906 35.2344 32.366 35.2344 31.7188C35.2344 31.0715 34.7098 30.5469 34.0625 30.5469Z" fill="black"/>
</g>
<defs>
<clipPath id="clip0_3142_920">
<rect width="40" height="40" fill="white"/>
</clipPath>
</defs>
</svg>
